<mxfile host="app.diagrams.net" modified="2023-07-24T13:36:51.221Z" agent="Mozilla/5.0 (Macintosh; Intel Mac OS X 10_15_7) AppleWebKit/537.36 (KHTML, like Gecko) Chrome/114.0.0.0 Safari/537.36" etag="xXmZc2XsbSrryPAPaNqB" version="21.6.1" type="device">
  <diagram name="Page-1" id="VzXDbJaOhGC96nMq_zni">
    <mxGraphModel dx="-1560" dy="520" grid="1" gridSize="10" guides="1" tooltips="1" connect="1" arrows="1" fold="1" page="1" pageScale="1" pageWidth="827" pageHeight="1169" math="0" shadow="0">
      <root>
        <mxCell id="0" />
        <mxCell id="1" parent="0" />
        <mxCell id="mnFBNAugpN4PRXguCW-v-79" value="" style="group;fontColor=#000000;" parent="1" connectable="0" vertex="1">
          <mxGeometry x="3230" y="530" width="1111.19" height="925.81" as="geometry" />
        </mxCell>
        <mxCell id="-9MAf7PEn5qSyh-q4To3-6" value="" style="shape=delay;whiteSpace=wrap;html=1;rotation=90;fillColor=#e1d6e8;strokeColor=none;movable=1;resizable=1;rotatable=1;deletable=1;editable=1;locked=0;connectable=1;container=0;" vertex="1" parent="mnFBNAugpN4PRXguCW-v-79">
          <mxGeometry x="439.9999999999999" y="118.72999999999993" width="170.55" height="101.27" as="geometry" />
        </mxCell>
        <mxCell id="-9MAf7PEn5qSyh-q4To3-5" value="" style="shape=delay;whiteSpace=wrap;html=1;rotation=90;fillColor=#ffce9f;strokeColor=none;movable=1;resizable=1;rotatable=1;deletable=1;editable=1;locked=0;connectable=1;container=0;" vertex="1" parent="mnFBNAugpN4PRXguCW-v-79">
          <mxGeometry x="175" y="117.81999999999994" width="170.55" height="101.27" as="geometry" />
        </mxCell>
        <mxCell id="mnFBNAugpN4PRXguCW-v-1" value="" style="rounded=1;whiteSpace=wrap;html=1;opacity=70;fillColor=#CCCCCC;strokeColor=none;fontColor=#333333;container=0;" parent="mnFBNAugpN4PRXguCW-v-79" vertex="1">
          <mxGeometry x="20" y="143.17000000000002" width="110" height="145.83" as="geometry" />
        </mxCell>
        <mxCell id="mnFBNAugpN4PRXguCW-v-51" value="" style="verticalLabelPosition=bottom;verticalAlign=top;html=1;shape=mxgraph.basic.polygon;polyCoords=[[0.25,0],[0.75,0],[1,0.25],[1,0.75],[0.75,1],[0.25,1],[0,0.75],[0,0.25]];polyline=0;fillColor=#CCFFCC;strokeColor=none;container=0;" parent="mnFBNAugpN4PRXguCW-v-79" vertex="1">
          <mxGeometry x="38.42" y="151.01999999999998" width="73.16" height="70.27" as="geometry" />
        </mxCell>
        <mxCell id="mnFBNAugpN4PRXguCW-v-61" value="" style="image;sketch=0;aspect=fixed;html=1;points=[];align=center;fontSize=12;image=img/lib/mscae/Kubernetes.svg;container=0;" parent="mnFBNAugpN4PRXguCW-v-79" vertex="1">
          <mxGeometry x="10.24237547839028" y="128.38582437970572" width="28.177730443231532" height="27.046989649229566" as="geometry" />
        </mxCell>
        <mxCell id="mnFBNAugpN4PRXguCW-v-52" value="" style="shape=image;imageAspect=0;aspect=fixed;verticalLabelPosition=bottom;verticalAlign=top;image=data:image/svg+xml,PHN2ZyB4bWxucz0iaHR0cDovL3d3dy53My5vcmcvMjAwMC9zdmciIGZpbGw9Im5vbmUiIHZpZXdCb3g9IjAgMCA2MzEgODcwIiBoZWlnaHQ9Ijg3MCIgd2lkdGg9IjYzMSI+JiN4YTs8cGF0aCBmaWxsPSIjMkE2QTk1IiBkPSJNNS44MTM3NSA4NTYuMTUyVjgyMC40NTRIOC45MjQ2MkwyNS4yNDM5IDg0OC4yOTlIMjMuNjEyTDM5Ljc3ODMgODIwLjQ1NEg0Mi44ODkyVjg1Ni4xNTJIMzkuMjY4M1Y4MjYuMTE1SDQwLjEzNTNMMjUuMjQzOSA4NTEuNjE0SDIzLjQ1OUw4LjQ2NTY0IDgyNi4xMTVIOS40MzQ2Vjg1Ni4xNTJINS44MTM3NVpNNjQuODIyMiA4NTYuNDA3QzYyLjU0NDMgODU2LjQwNyA2MC41NTU0IDg1NS45ODIgNTguODU1NSA4NTUuMTMzQzU3LjE1NTUgODU0LjI4MyA1NS44Mjk2IDg1My4wMDggNTQuODc3NiA4NTEuMzA4QzUzLjk1OTcgODQ5LjYwOCA1My41MDA3IDg0Ny40ODMgNTMuNTAwNyA4NDQuOTMzVjgyOS4zNzlINTcuMTIxNlY4NDQuNTI1QzU3LjEyMTYgODQ3LjM4MSA1Ny44MTg1IDg0OS41NCA1OS4yMTI1IDg1MS4wMDJDNjAuNjQwNCA4NTIuNDMgNjIuNjI5MyA4NTMuMTQ0IDY1LjE3OTIgODUzLjE0NEM2Ny4wNDkxIDg1My4xNDQgNjguNjY0MSA4NTIuNzcgNzAuMDI0IDg1Mi4wMjJDNzEuNDE3OSA4NTEuMjQgNzIuNDcxOSA4NTAuMTE4IDczLjE4NTkgODQ4LjY1NkM3My45MzM4IDg0Ny4xOTQgNzQuMzA3OCA4NDUuNDQzIDc0LjMwNzggODQzLjQwM1Y4MjkuMzc5SDc3LjkyODdWODU2LjE1Mkg3NC40NjA4Vjg0OC44MDlMNzUuMDIxOCA4NTAuMTM1Qzc0LjE3MTggODUyLjEwNyA3Mi44NDU5IDg1My42NTQgNzEuMDQ0IDg1NC43NzZDNjkuMjc2IDg1NS44NjMgNjcuMjAyMSA4NTYuNDA3IDY0LjgyMjIgODU2LjQwN1pNODguMDE5OSA4NTYuMTUyVjgxOC4zMTJIOTEuNjQwN1Y4NTYuMTUySDg4LjAxOTlaTTExMC4zMzEgODU2LjQwN0MxMDcuODE1IDg1Ni40MDcgMTA1Ljg3NyA4NTUuNzI3IDEwNC41MTcgODU0LjM2OEMxMDMuMTU3IDg1My4wMDggMTAyLjQ3NyA4NTEuMDg3IDEwMi40NzcgODQ4LjYwNVY4MjMuNDYzSDEwNi4wOThWODQ4LjQwMUMxMDYuMDk4IDg0OS45NjUgMTA2LjQ4OSA4NTEuMTcyIDEwNy4yNzEgODUyLjAyMkMxMDguMDg3IDg1Mi44NzIgMTA5LjI0MyA4NTMuMjk3IDExMC43MzkgODUzLjI5N0MxMTIuMzM3IDg1My4yOTcgMTEzLjY2MiA4NTIuODM4IDExNC43MTYgODUxLjkyTDExNS45OTEgODU0LjUyMUMxMTUuMjc3IDg1NS4xNjcgMTE0LjQxIDg1NS42NDIgMTEzLjM5IDg1NS45NDhDMTEyLjQwNSA4NTYuMjU0IDExMS4zODUgODU2LjQwNyAxMTAuMzMxIDg1Ni40MDdaTTk3LjY4MzEgODMyLjM4N1Y4MjkuMzc5SDExNC4yNTdWODMyLjM4N0g5Ny42ODMxWk0xMjIuNTgzIDg1Ni4xNTJWODI5LjM3OUgxMjYuMjA0Vjg1Ni4xNTJIMTIyLjU4M1pNMTI0LjQxOSA4MjMuNDYzQzEyMy42NzEgODIzLjQ2MyAxMjMuMDQyIDgyMy4yMDggMTIyLjUzMiA4MjIuNjk4QzEyMi4wMjIgODIyLjE4OCAxMjEuNzY3IDgyMS41NzYgMTIxLjc2NyA4MjAuODYyQzEyMS43NjcgODIwLjE0OCAxMjIuMDIyIDgxOS41NTMgMTIyLjUzMiA4MTkuMDc3QzEyMy4wNDIgODE4LjU2NyAxMjMuNjcxIDgxOC4zMTIgMTI0LjQxOSA4MTguMzEyQzEyNS4xNjcgODE4LjMxMiAxMjUuNzk2IDgxOC41NSAxMjYuMzA2IDgxOS4wMjZDMTI2LjgxNiA4MTkuNTAyIDEyNy4wNzEgODIwLjA5NyAxMjcuMDcxIDgyMC44MTFDMTI3LjA3MSA4MjEuNTU5IDEyNi44MTYgODIyLjE4OCAxMjYuMzA2IDgyMi42OThDMTI1LjgzIDgyMy4yMDggMTI1LjIwMSA4MjMuNDYzIDEyNC40MTkgODIzLjQ2M1pNMTQ3LjYzNyA4NDMuOTEzVjg0MC43NTFIMTYwLjk5OFY4NDMuOTEzSDE0Ny42MzdaTTE5My41NjMgODU2LjQwN0MxOTAuOTExIDg1Ni40MDcgMTg4LjUzMSA4NTUuODI5IDE4Ni40MjMgODU0LjY3NEMxODQuMzQ5IDg1My40ODQgMTgyLjcxOCA4NTEuODY5IDE4MS41MjggODQ5LjgyOUMxODAuMzM4IDg0Ny43NTUgMTc5Ljc0MyA4NDUuMzkyIDE3OS43NDMgODQyLjc0QzE3OS43NDMgODQwLjA1NCAxODAuMzM4IDgzNy42OTEgMTgxLjUyOCA4MzUuNjUxQzE4Mi43MTggODMzLjYxMSAxODQuMzQ5IDgzMi4wMTMgMTg2LjQyMyA4MzAuODU4QzE4OC41MzEgODI5LjcwMiAxOTAuOTExIDgyOS4xMjQgMTkzLjU2MyA4MjkuMTI0QzE5NS44NDEgODI5LjEyNCAxOTcuODk4IDgyOS41NjYgMTk5LjczNCA4MzAuNDVDMjAxLjU3IDgzMS4zMzQgMjAzLjAxNSA4MzIuNjU5IDIwNC4wNjkgODM0LjQyN0wyMDEuMzY2IDgzNi4yNjNDMjAwLjQ0OCA4MzQuOTAzIDE5OS4zMDkgODMzLjkgMTk3Ljk0OSA4MzMuMjU0QzE5Ni41ODkgODMyLjYwOCAxOTUuMTEgODMyLjI4NSAxOTMuNTEyIDgzMi4yODVDMTkxLjYwOCA4MzIuMjg1IDE4OS44OTEgODMyLjcyNyAxODguMzYxIDgzMy42MTFDMTg2LjgzMSA4MzQuNDYxIDE4NS42MjQgODM1LjY2OCAxODQuNzQgODM3LjIzMkMxODMuODU2IDgzOC43OTYgMTgzLjQxNCA4NDAuNjMyIDE4My40MTQgODQyLjc0QzE4My40MTQgODQ0Ljg0OCAxODMuODU2IDg0Ni42ODQgMTg0Ljc0IDg0OC4yNDhDMTg1LjYyNCA4NDkuODEyIDE4Ni44MzEgODUxLjAzNiAxODguMzYxIDg1MS45MkMxODkuODkxIDg1Mi43NyAxOTEuNjA4IDg1My4xOTUgMTkzLjUxMiA4NTMuMTk1QzE5NS4xMSA4NTMuMTk1IDE5Ni41ODkgODUyLjg3MiAxOTcuOTQ5IDg1Mi4yMjZDMTk5LjMwOSA4NTEuNTggMjAwLjQ0OCA4NTAuNTk0IDIwMS4zNjYgODQ5LjI2OEwyMDQuMDY5IDg1MS4xMDRDMjAzLjAxNSA4NTIuODM4IDIwMS41NyA4NTQuMTY0IDE5OS43MzQgODU1LjA4MkMxOTcuODk4IDg1NS45NjUgMTk1Ljg0MSA4NTYuNDA3IDE5My41NjMgODU2LjQwN1pNMjEwLjc4MyA4NTYuMTUyVjgxOC4zMTJIMjE0LjQwNFY4NTYuMTUySDIxMC43ODNaTTIzNS4zOTIgODU2LjQwN0MyMzIuODA5IDg1Ni40MDcgMjMwLjQ4IDg1NS44MjkgMjI4LjQwNiA4NTQuNjc0QzIyNi4zNjYgODUzLjQ4NCAyMjQuNzUxIDg1MS44NjkgMjIzLjU2MSA4NDkuODI5QzIyMi4zNzEgODQ3Ljc1NSAyMjEuNzc2IDg0NS4zOTIgMjIxLjc3NiA4NDIuNzRDMjIxLjc3NiA4NDAuMDU0IDIyMi4zNzEgODM3LjY5MSAyMjMuNTYxIDgzNS42NTFDMjI0Ljc1MSA4MzMuNjExIDIyNi4zNjYgODMyLjAxMyAyMjguNDA2IDgzMC44NThDMjMwLjQ0NiA4MjkuNzAyIDIzMi43NzUgODI5LjEyNCAyMzUuMzkyIDgyOS4xMjRDMjM4LjA0NCA4MjkuMTI0IDI0MC4zOSA4MjkuNzAyIDI0Mi40MyA4MzAuODU4QzI0NC41MDQgODMyLjAxMyAyNDYuMTE5IDgzMy42MTEgMjQ3LjI3NSA4MzUuNjUxQzI0OC40NjUgODM3LjY5MSAyNDkuMDYgODQwLjA1NCAyNDkuMDYgODQyLjc0QzI0OS4wNiA4NDUuMzkyIDI0OC40NjUgODQ3Ljc1NSAyNDcuMjc1IDg0OS44MjlDMjQ2LjExOSA4NTEuODY5IDI0NC41MDQgODUzLjQ4NCAyNDIuNDMgODU0LjY3NEMyNDAuMzU2IDg1NS44MjkgMjM4LjAxIDg1Ni40MDcgMjM1LjM5MiA4NTYuNDA3Wk0yMzUuMzkyIDg1My4xOTVDMjM3LjMzIDg1My4xOTUgMjM5LjA0NyA4NTIuNzcgMjQwLjU0MyA4NTEuOTJDMjQyLjAzOSA4NTEuMDM2IDI0My4yMTIgODQ5LjgxMiAyNDQuMDYyIDg0OC4yNDhDMjQ0Ljk0NiA4NDYuNjUgMjQ1LjM4OCA4NDQuODE0IDI0NS4zODggODQyLjc0QzI0NS4zODggODQwLjYzMiAyNDQuOTQ2IDgzOC43OTYgMjQ0LjA2MiA4MzcuMjMyQzI0My4yMTIgODM1LjY2OCAyNDIuMDM5IDgzNC40NjEgMjQwLjU0MyA4MzMuNjExQzIzOS4wNDcgODMyLjcyNyAyMzcuMzQ3IDgzMi4yODUgMjM1LjQ0MyA4MzIuMjg1QzIzMy41MzkgODMyLjI4NSAyMzEuODQgODMyLjcyNyAyMzAuMzQ0IDgzMy42MTFDMjI4Ljg0OCA4MzQuNDYxIDIyNy42NTggODM1LjY2OCAyMjYuNzc0IDgzNy4yMzJDMjI1Ljg5IDgzOC43OTYgMjI1LjQ0OCA4NDAuNjMyIDIyNS40NDggODQyLjc0QzIyNS40NDggODQ0LjgxNCAyMjUuODkgODQ2LjY1IDIyNi43NzQgODQ4LjI0OEMyMjcuNjU4IDg0OS44MTIgMjI4Ljg0OCA4NTEuMDM2IDIzMC4zNDQgODUxLjkyQzIzMS44NCA4NTIuNzcgMjMzLjUyMiA4NTMuMTk1IDIzNS4zOTIgODUzLjE5NVpNMjY3LjUxOSA4NTYuNDA3QzI2NS4yNDEgODU2LjQwNyAyNjMuMjUyIDg1NS45ODIgMjYxLjU1MiA4NTUuMTMzQzI1OS44NTIgODU0LjI4MyAyNTguNTI2IDg1My4wMDggMjU3LjU3NCA4NTEuMzA4QzI1Ni42NTYgODQ5LjYwOCAyNTYuMTk3IDg0Ny40ODMgMjU2LjE5NyA4NDQuOTMzVjgyOS4zNzlIMjU5LjgxOFY4NDQuNTI1QzI1OS44MTggODQ3LjM4MSAyNjAuNTE1IDg0OS41NCAyNjEuOTA5IDg1MS4wMDJDMjYzLjMzNyA4NTIuNDMgMjY1LjMyNiA4NTMuMTQ0IDI2Ny44NzYgODUzLjE0NEMyNjkuNzQ2IDg1My4xNDQgMjcxLjM2MSA4NTIuNzcgMjcyLjcyIDg1Mi4wMjJDMjc0LjExNCA4NTEuMjQgMjc1LjE2OCA4NTAuMTE4IDI3NS44ODIgODQ4LjY1NkMyNzYuNjMgODQ3LjE5NCAyNzcuMDA0IDg0NS40NDMgMjc3LjAwNCA4NDMuNDAzVjgyOS4zNzlIMjgwLjYyNVY4NTYuMTUySDI3Ny4xNTdWODQ4LjgwOUwyNzcuNzE4IDg1MC4xMzVDMjc2Ljg2OCA4NTIuMTA3IDI3NS41NDIgODUzLjY1NCAyNzMuNzQgODU0Ljc3NkMyNzEuOTcyIDg1NS44NjMgMjY5Ljg5OSA4NTYuNDA3IDI2Ny41MTkgODU2LjQwN1pNMzAxLjM3NSA4NTYuNDA3QzI5OC44MjUgODU2LjQwNyAyOTYuNTMgODU1LjgyOSAyOTQuNDkgODU0LjY3NEMyOTIuNDg0IDg1My41MTggMjkwLjkwMyA4NTEuOTIgMjg5Ljc0NyA4NDkuODhDMjg4LjU5MSA4NDcuODA2IDI4OC4wMTMgODQ1LjQyNiAyODguMDEzIDg0Mi43NEMyODguMDEzIDg0MC4wMiAyODguNTkxIDgzNy42NCAyODkuNzQ3IDgzNS42QzI5MC45MDMgODMzLjU2IDI5Mi40ODQgODMxLjk3OSAyOTQuNDkgODMwLjg1OEMyOTYuNTMgODI5LjcwMiAyOTguODI1IDgyOS4xMjQgMzAxLjM3NSA4MjkuMTI0QzMwMy43MjEgODI5LjEyNCAzMDUuODEyIDgyOS42NTEgMzA3LjY0OCA4MzAuNzA1QzMwOS41MTcgODMxLjc1OSAzMTAuOTk2IDgzMy4zMDUgMzEyLjA4NCA4MzUuMzQ1QzMxMy4yMDYgODM3LjM1MSAzMTMuNzY3IDgzOS44MTYgMzEzLjc2NyA4NDIuNzRDMzEzLjc2NyA4NDUuNjMgMzEzLjIyMyA4NDguMDk1IDMxMi4xMzUgODUwLjEzNUMzMTEuMDQ3IDg1Mi4xNzUgMzA5LjU2OCA4NTMuNzM5IDMwNy42OTkgODU0LjgyN0MzMDUuODYzIDg1NS44OCAzMDMuNzU1IDg1Ni40MDcgMzAxLjM3NSA4NTYuNDA3Wk0zMDEuNjMgODUzLjE5NUMzMDMuNTM0IDg1My4xOTUgMzA1LjIzNCA4NTIuNzcgMzA2LjczIDg1MS45MkMzMDguMjYgODUxLjAzNiAzMDkuNDQ5IDg0OS44MTIgMzEwLjI5OSA4NDguMjQ4QzMxMS4xODMgODQ2LjY1IDMxMS42MjUgODQ0LjgxNCAzMTEuNjI1IDg0Mi43NEMzMTEuNjI1IDg0MC42MzIgMzExLjE4MyA4MzguNzk2IDMxMC4yOTkgODM3LjIzMkMzMDkuNDQ5IDgzNS42NjggMzA4LjI2IDgzNC40NjEgMzA2LjczIDgzMy42MTFDMzA1LjIzNCA4MzIuNzI3IDMwMy41MzQgODMyLjI4NSAzMDEuNjMgODMyLjI4NUMyOTkuNzYgODMyLjI4NSAyOTguMDc3IDgzMi43MjcgMjk2LjU4MSA4MzMuNjExQzI5NS4wODUgODM0LjQ2MSAyOTMuODk1IDgzNS42NjggMjkzLjAxMSA4MzcuMjMyQzI5Mi4xMjcgODM4Ljc5NiAyOTEuNjg1IDg0MC42MzIgMjkxLjY4NSA4NDIuNzRDMjkxLjY4NSA4NDQuODE0IDI5Mi4xMjcgODQ2LjY1IDI5My4wMTEgODQ4LjI0OEMyOTMuODk1IDg0OS44MTIgMjk1LjA4NSA4NTEuMDM2IDI5Ni41ODEgODUxLjkyQzI5OC4wNzcgODUyLjc3IDI5OS43NiA4NTMuMTk1IDMwMS42MyA4NTMuMTk1Wk0zMTEuNzI3IDg1Ni4xNTJWODQ4LjA5NUwzMTIuMDg0IDg0Mi42ODlMMzExLjU3NCA4MzcuMjgzVjgxOC4zMTJIMzE1LjE5NVY4NTYuMTUySDMxMS43MjdaTTM0Mi42NTUgODQ3LjI3OUwzNDIuNTAyIDg0Mi42ODlMMzY0LjEyNSA4MjAuNDU0SDM2OC40NkwzNTIuNzAyIDgzNi45NzdMMzUwLjU2IDgzOS4yNzJMMzQyLjY1NSA4NDcuMjc5Wk0zMzkuMzkxIDg1Ni4xNTJWODIwLjQ1NEgzNDMuMTY1Vjg1Ni4xNTJIMzM5LjM5MVpNMzY1LjA0MyA4NTYuMTUyTDM0OS42NDIgODM4LjQwNUwzNTIuMTkyIDgzNS42NTFMMzY5LjUzMSA4NTYuMTUySDM2NS4wNDNaTTM4NS4wMDMgODU2LjQwN0MzODIuNzI1IDg1Ni40MDcgMzgwLjczNiA4NTUuOTgyIDM3OS4wMzYgODU1LjEzM0MzNzcuMzM2IDg1NC4yODMgMzc2LjAxIDg1My4wMDggMzc1LjA1OCA4NTEuMzA4QzM3NC4xNCA4NDkuNjA4IDM3My42ODEgODQ3LjQ4MyAzNzMuNjgxIDg0NC45MzNWODI5LjM3OUgzNzcuMzAyVjg0NC41MjVDMzc3LjMwMiA4NDcuMzgxIDM3Ny45OTkgODQ5LjU0IDM3OS4zOTMgODUxLjAwMkMzODAuODIxIDg1Mi40MyAzODIuODEgODUzLjE0NCAzODUuMzYgODUzLjE0NEMzODcuMjMgODUzLjE0NCAzODguODQ1IDg1Mi43NyAzOTAuMjA1IDg1Mi4wMjJDMzkxLjU5OSA4NTEuMjQgMzkyLjY1MyA4NTAuMTE4IDM5My4zNjcgODQ4LjY1NkMzOTQuMTE1IDg0Ny4xOTQgMzk0LjQ4OSA4NDUuNDQzIDM5NC40ODkgODQzLjQwM1Y4MjkuMzc5SDM5OC4xMDlWODU2LjE1MkgzOTQuNjQyVjg0OC44MDlMMzk1LjIwMiA4NTAuMTM1QzM5NC4zNTMgODUyLjEwNyAzOTMuMDI3IDg1My42NTQgMzkxLjIyNSA4NTQuNzc2QzM4OS40NTcgODU1Ljg2MyAzODcuMzgzIDg1Ni40MDcgMzg1LjAwMyA4NTYuNDA3Wk00MjIuMDIxIDg1Ni40MDdDNDE5LjY3NSA4NTYuNDA3IDQxNy41NjcgODU1Ljg4IDQxNS42OTcgODU0LjgyN0M0MTMuODI3IDg1My43MzkgNDEyLjM0OCA4NTIuMTc1IDQxMS4yNiA4NTAuMTM1QzQxMC4xNzIgODQ4LjA5NSA0MDkuNjI4IDg0NS42MyA0MDkuNjI4IDg0Mi43NEM0MDkuNjI4IDgzOS44MTYgNDEwLjE3MiA4MzcuMzUxIDQxMS4yNiA4MzUuMzQ1QzQxMi4zODIgODMzLjMwNSA0MTMuODc4IDgzMS43NTkgNDE1Ljc0OCA4MzAuNzA1QzQxNy42MTggODI5LjY1MSA0MTkuNzA5IDgyOS4xMjQgNDIyLjAyMSA4MjkuMTI0QzQyNC41NzEgODI5LjEyNCA0MjYuODQ5IDgyOS43MDIgNDI4Ljg1NSA4MzAuODU4QzQzMC44OTUgODMxLjk3OSA0MzIuNDkzIDgzMy41NiA0MzMuNjQ4IDgzNS42QzQzNC44MDQgODM3LjY0IDQzNS4zODIgODQwLjAyIDQzNS4zODIgODQyLjc0QzQzNS4zODIgODQ1LjQyNiA0MzQuODA0IDg0Ny44MDYgNDMzLjY0OCA4NDkuODhDNDMyLjQ5MyA4NTEuOTIgNDMwLjg5NSA4NTMuNTE4IDQyOC44NTUgODU0LjY3NEM0MjYuODQ5IDg1NS44MjkgNDI0LjU3MSA4NTYuNDA3IDQyMi4wMjEgODU2LjQwN1pNNDA4LjIwMSA4NTYuMTUyVjgxOC4zMTJINDExLjgyMVY4MzcuMjgzTDQxMS4zMTEgODQyLjY4OUw0MTEuNjY4IDg0OC4wOTVWODU2LjE1Mkg0MDguMjAxWk00MjEuNzY2IDg1My4xOTVDNDIzLjY3IDg1My4xOTUgNDI1LjM3IDg1Mi43NyA0MjYuODY2IDg1MS45MkM0MjguMzYyIDg1MS4wMzYgNDI5LjU1MiA4NDkuODEyIDQzMC40MzYgODQ4LjI0OEM0MzEuMzIgODQ2LjY1IDQzMS43NjIgODQ0LjgxNCA0MzEuNzYyIDg0Mi43NEM0MzEuNzYyIDg0MC42MzIgNDMxLjMyIDgzOC43OTYgNDMwLjQzNiA4MzcuMjMyQzQyOS41NTIgODM1LjY2OCA0MjguMzYyIDgzNC40NjEgNDI2Ljg2NiA4MzMuNjExQzQyNS4zNyA4MzIuNzI3IDQyMy42NyA4MzIuMjg1IDQyMS43NjYgODMyLjI4NUM0MTkuODYyIDgzMi4yODUgNDE4LjE0NSA4MzIuNzI3IDQxNi42MTUgODMzLjYxMUM0MTUuMTE5IDgzNC40NjEgNDEzLjkyOSA4MzUuNjY4IDQxMy4wNDUgODM3LjIzMkM0MTIuMTk1IDgzOC43OTYgNDExLjc3IDg0MC42MzIgNDExLjc3IDg0Mi43NEM0MTEuNzcgODQ0LjgxNCA0MTIuMTk1IDg0Ni42NSA0MTMuMDQ1IDg0OC4yNDhDNDEzLjkyOSA4NDkuODEyIDQxNS4xMTkgODUxLjAzNiA0MTYuNjE1IDg1MS45MkM0MTguMTQ1IDg1Mi43NyA0MTkuODYyIDg1My4xOTUgNDIxLjc2NiA4NTMuMTk1Wk00NTQuMTM2IDg1Ni40MDdDNDUxLjM0OCA4NTYuNDA3IDQ0OC45IDg1NS44MjkgNDQ2Ljc5MiA4NTQuNjc0QzQ0NC42ODQgODUzLjQ4NCA0NDMuMDM2IDg1MS44NjkgNDQxLjg0NiA4NDkuODI5QzQ0MC42NTYgODQ3Ljc1NSA0NDAuMDYxIDg0NS4zOTIgNDQwLjA2MSA4NDIuNzRDNDQwLjA2MSA4NDAuMDg4IDQ0MC42MjIgODM3Ljc0MiA0NDEuNzQ0IDgzNS43MDJDNDQyLjkgODMzLjY2MiA0NDQuNDYzIDgzMi4wNjQgNDQ2LjQzNSA4MzAuOTA5QzQ0OC40NDEgODI5LjcxOSA0NTAuNjg1IDgyOS4xMjQgNDUzLjE2NyA4MjkuMTI0QzQ1NS42ODMgODI5LjEyNCA0NTcuOTEgODI5LjcwMiA0NTkuODQ4IDgzMC44NThDNDYxLjgyIDgzMS45NzkgNDYzLjM2NyA4MzMuNTc3IDQ2NC40ODkgODM1LjY1MUM0NjUuNjExIDgzNy42OTEgNDY2LjE3MiA4NDAuMDU0IDQ2Ni4xNzIgODQyLjc0QzQ2Ni4xNzIgODQyLjkxIDQ2Ni4xNTUgODQzLjA5NyA0NjYuMTIxIDg0My4zMDFDNDY2LjEyMSA4NDMuNDcxIDQ2Ni4xMjEgODQzLjY1OCA0NjYuMTIxIDg0My44NjJINDQyLjgxNVY4NDEuMTU5SDQ2NC4xODNMNDYyLjc1NSA4NDIuMjNDNDYyLjc1NSA4NDAuMjkyIDQ2Mi4zMyA4MzguNTc1IDQ2MS40OCA4MzcuMDc5QzQ2MC42NjQgODM1LjU0OSA0NTkuNTQyIDgzNC4zNTkgNDU4LjExNCA4MzMuNTA5QzQ1Ni42ODYgODMyLjY1OSA0NTUuMDM3IDgzMi4yMzQgNDUzLjE2NyA4MzIuMjM0QzQ1MS4zMzEgODMyLjIzNCA0NDkuNjgyIDgzMi42NTkgNDQ4LjIyIDgzMy41MDlDNDQ2Ljc1OCA4MzQuMzU5IDQ0NS42MTkgODM1LjU0OSA0NDQuODAzIDgzNy4wNzlDNDQzLjk4NyA4MzguNjA5IDQ0My41OCA4NDAuMzYgNDQzLjU4IDg0Mi4zMzJWODQyLjg5M0M0NDMuNTggODQ0LjkzMyA0NDQuMDIxIDg0Ni43MzUgNDQ0LjkwNSA4NDguMjk5QzQ0NS44MjMgODQ5LjgyOSA0NDcuMDgxIDg1MS4wMzYgNDQ4LjY3OSA4NTEuOTJDNDUwLjMxMSA4NTIuNzcgNDUyLjE2NCA4NTMuMTk1IDQ1NC4yMzggODUzLjE5NUM0NTUuODcgODUzLjE5NSA0NTcuMzgzIDg1Mi45MDYgNDU4Ljc3NyA4NTIuMzI4QzQ2MC4yMDUgODUxLjc1IDQ2MS40MjkgODUwLjg2NiA0NjIuNDQ5IDg0OS42NzZMNDY0LjQ4OSA4NTIuMDIyQzQ2My4yOTkgODUzLjQ1IDQ2MS44MDMgODU0LjUzOCA0NjAuMDAxIDg1NS4yODZDNDU4LjIzMyA4NTYuMDMzIDQ1Ni4yNzggODU2LjQwNyA0NTQuMTM2IDg1Ni40MDdaTTQ3My41NDIgODU2LjE1MlY4MjkuMzc5SDQ3Ny4wMDlWODM2LjY3MUw0NzYuNjUyIDgzNS4zOTZDNDc3LjQgODMzLjM1NiA0NzguNjU4IDgzMS44MSA0ODAuNDI2IDgzMC43NTZDNDgyLjE5NCA4MjkuNjY4IDQ4NC4zODcgODI5LjEyNCA0ODcuMDA1IDgyOS4xMjRWODMyLjY0MkM0ODYuODY5IDgzMi42NDIgNDg2LjczMyA4MzIuNjQyIDQ4Ni41OTcgODMyLjY0MkM0ODYuNDYxIDgzMi42MDggNDg2LjMyNSA4MzIuNTkxIDQ4Ni4xODkgODMyLjU5MUM0ODMuMzY3IDgzMi41OTEgNDgxLjE1NyA4MzMuNDU4IDQ3OS41NTkgODM1LjE5MkM0NzcuOTYxIDgzNi44OTIgNDc3LjE2MiA4MzkuMzIzIDQ3Ny4xNjIgODQyLjQ4NVY4NTYuMTUySDQ3My41NDJaTTUwNy4yNzkgODI5LjEyNEM1MDkuNDU1IDgyOS4xMjQgNTExLjM1OSA4MjkuNTQ5IDUxMi45OTEgODMwLjM5OUM1MTQuNjU3IDgzMS4yMTUgNTE1Ljk0OSA4MzIuNDcyIDUxNi44NjcgODM0LjE3MkM1MTcuODE5IDgzNS44NzIgNTE4LjI5NSA4MzguMDE0IDUxOC4yOTUgODQwLjU5OFY4NTYuMTUySDUxNC42NzRWODQwLjk1NUM1MTQuNjc0IDgzOC4xMzMgNTEzLjk2IDgzNi4wMDggNTEyLjUzMiA4MzQuNThDNTExLjEzOCA4MzMuMTE4IDUwOS4xNjYgODMyLjM4NyA1MDYuNjE2IDgzMi4zODdDNTA0LjcxMiA4MzIuMzg3IDUwMy4wNDcgODMyLjc3OCA1MDEuNjE5IDgzMy41NkM1MDAuMjI1IDgzNC4zMDggNDk5LjEzNyA4MzUuNDEzIDQ5OC4zNTUgODM2Ljg3NUM0OTcuNjA3IDgzOC4zMDMgNDk3LjIzMyA4NDAuMDM3IDQ5Ny4yMzMgODQyLjA3N1Y4NTYuMTUySDQ5My42MTJWODI5LjM3OUg0OTcuMDhWODM2LjcyMkw0OTYuNTE5IDgzNS4zNDVDNDk3LjM2OSA4MzMuNDA3IDQ5OC43MjkgODMxLjg5NCA1MDAuNTk5IDgzMC44MDdDNTAyLjQ2OSA4MjkuNjg1IDUwNC42OTUgODI5LjEyNCA1MDcuMjc5IDgyOS4xMjRaTTUzOS40NDggODU2LjQwN0M1MzYuNjYgODU2LjQwNyA1MzQuMjEyIDg1NS44MjkgNTMyLjEwNCA4NTQuNjc0QzUyOS45OTYgODUzLjQ4NCA1MjguMzQ3IDg1MS44NjkgNTI3LjE1NyA4NDkuODI5QzUyNS45NjcgODQ3Ljc1NSA1MjUuMzcyIDg0NS4zOTIgNTI1LjM3MiA4NDIuNzRDNTI1LjM3MiA4NDAuMDg4IDUyNS45MzMgODM3Ljc0MiA1MjcuMDU1IDgzNS43MDJDNTI4LjIxMSA4MzMuNjYyIDUyOS43NzUgODMyLjA2NCA1MzEuNzQ3IDgzMC45MDlDNTMzLjc1MyA4MjkuNzE5IDUzNS45OTcgODI5LjEyNCA1MzguNDc5IDgyOS4xMjRDNTQwLjk5NSA4MjkuMTI0IDU0My4yMjIgODI5LjcwMiA1NDUuMTYgODMwLjg1OEM1NDcuMTMyIDgzMS45NzkgNTQ4LjY3OCA4MzMuNTc3IDU0OS44IDgzNS42NTFDNTUwLjkyMiA4MzcuNjkxIDU1MS40ODMgODQwLjA1NCA1NTEuNDgzIDg0Mi43NEM1NTEuNDgzIDg0Mi45MSA1NTEuNDY2IDg0My4wOTcgNTUxLjQzMiA4NDMuMzAxQzU1MS40MzIgODQzLjQ3MSA1NTEuNDMyIDg0My42NTggNTUxLjQzMiA4NDMuODYySDUyOC4xMjZWODQxLjE1OUg1NDkuNDk0TDU0OC4wNjYgODQyLjIzQzU0OC4wNjYgODQwLjI5MiA1NDcuNjQyIDgzOC41NzUgNTQ2Ljc5MiA4MzcuMDc5QzU0NS45NzYgODM1LjU0OSA1NDQuODU0IDgzNC4zNTkgNTQzLjQyNiA4MzMuNTA5QzU0MS45OTggODMyLjY1OSA1NDAuMzQ5IDgzMi4yMzQgNTM4LjQ3OSA4MzIuMjM0QzUzNi42NDMgODMyLjIzNCA1MzQuOTk0IDgzMi42NTkgNTMzLjUzMiA4MzMuNTA5QzUzMi4wNyA4MzQuMzU5IDUzMC45MzEgODM1LjU0OSA1MzAuMTE1IDgzNy4wNzlDNTI5LjI5OSA4MzguNjA5IDUyOC44OTEgODQwLjM2IDUyOC44OTEgODQyLjMzMlY4NDIuODkzQzUyOC44OTEgODQ0LjkzMyA1MjkuMzMzIDg0Ni43MzUgNTMwLjIxNyA4NDguMjk5QzUzMS4xMzUgODQ5LjgyOSA1MzIuMzkzIDg1MS4wMzYgNTMzLjk5MSA4NTEuOTJDNTM1LjYyMyA4NTIuNzcgNTM3LjQ3NiA4NTMuMTk1IDUzOS41NSA4NTMuMTk1QzU0MS4xODIgODUzLjE5NSA1NDIuNjk1IDg1Mi45MDYgNTQ0LjA4OSA4NTIuMzI4QzU0NS41MTcgODUxLjc1IDU0Ni43NDEgODUwLjg2NiA1NDcuNzYgODQ5LjY3Nkw1NDkuOCA4NTIuMDIyQzU0OC42MSA4NTMuNDUgNTQ3LjExNSA4NTQuNTM4IDU0NS4zMTMgODU1LjI4NkM1NDMuNTQ1IDg1Ni4wMzMgNTQxLjU5IDg1Ni40MDcgNTM5LjQ0OCA4NTYuNDA3Wk01NjcuMzE5IDg1Ni40MDdDNTY0LjgwMyA4NTYuNDA3IDU2Mi44NjUgODU1LjcyNyA1NjEuNTA1IDg1NC4zNjhDNTYwLjE0NSA4NTMuMDA4IDU1OS40NjUgODUxLjA4NyA1NTkuNDY1IDg0OC42MDVWODIzLjQ2M0g1NjMuMDg2Vjg0OC40MDFDNTYzLjA4NiA4NDkuOTY1IDU2My40NzcgODUxLjE3MiA1NjQuMjU5IDg1Mi4wMjJDNTY1LjA3NSA4NTIuODcyIDU2Ni4yMzEgODUzLjI5NyA1NjcuNzI3IDg1My4yOTdDNTY5LjMyNSA4NTMuMjk3IDU3MC42NTEgODUyLjgzOCA1NzEuNzA1IDg1MS45Mkw1NzIuOTggODU0LjUyMUM1NzIuMjY2IDg1NS4xNjcgNTcxLjM5OSA4NTUuNjQyIDU3MC4zNzkgODU1Ljk0OEM1NjkuMzkzIDg1Ni4yNTQgNTY4LjM3MyA4NTYuNDA3IDU2Ny4zMTkgODU2LjQwN1pNNTU0LjY3MSA4MzIuMzg3VjgyOS4zNzlINTcxLjI0NlY4MzIuMzg3SDU1NC42NzFaTTU4OS45OTcgODU2LjQwN0M1ODcuMjEgODU2LjQwNyA1ODQuNzYyIDg1NS44MjkgNTgyLjY1NCA4NTQuNjc0QzU4MC41NDYgODUzLjQ4NCA1NzguODk3IDg1MS44NjkgNTc3LjcwNyA4NDkuODI5QzU3Ni41MTcgODQ3Ljc1NSA1NzUuOTIyIDg0NS4zOTIgNTc1LjkyMiA4NDIuNzRDNTc1LjkyMiA4NDAuMDg4IDU3Ni40ODMgODM3Ljc0MiA1NzcuNjA1IDgzNS43MDJDNTc4Ljc2MSA4MzMuNjYyIDU4MC4zMjUgODMyLjA2NCA1ODIuMjk3IDgzMC45MDlDNTg0LjMwMyA4MjkuNzE5IDU4Ni41NDcgODI5LjEyNCA1ODkuMDI4IDgyOS4xMjRDNTkxLjU0NCA4MjkuMTI0IDU5My43NzEgODI5LjcwMiA1OTUuNzA5IDgzMC44NThDNTk3LjY4MSA4MzEuOTc5IDU5OS4yMjggODMzLjU3NyA2MDAuMzUgODM1LjY1MUM2MDEuNDcyIDgzNy42OTEgNjAyLjAzMyA4NDAuMDU0IDYwMi4wMzMgODQyLjc0QzYwMi4wMzMgODQyLjkxIDYwMi4wMTYgODQzLjA5NyA2MDEuOTgyIDg0My4zMDFDNjAxLjk4MiA4NDMuNDcxIDYwMS45ODIgODQzLjY1OCA2MDEuOTgyIDg0My44NjJINTc4LjY3NlY4NDEuMTU5SDYwMC4wNDRMNTk4LjYxNiA4NDIuMjNDNTk4LjYxNiA4NDAuMjkyIDU5OC4xOTEgODM4LjU3NSA1OTcuMzQxIDgzNy4wNzlDNTk2LjUyNSA4MzUuNTQ5IDU5NS40MDMgODM0LjM1OSA1OTMuOTc1IDgzMy41MDlDNTkyLjU0NyA4MzIuNjU5IDU5MC44OTggODMyLjIzNCA1ODkuMDI4IDgzMi4yMzRDNTg3LjE5MyA4MzIuMjM0IDU4NS41NDQgODMyLjY1OSA1ODQuMDgyIDgzMy41MDlDNTgyLjYyIDgzNC4zNTkgNTgxLjQ4MSA4MzUuNTQ5IDU4MC42NjUgODM3LjA3OUM1NzkuODQ5IDgzOC42MDkgNTc5LjQ0MSA4NDAuMzYgNTc5LjQ0MSA4NDIuMzMyVjg0Mi44OTNDNTc5LjQ0MSA4NDQuOTMzIDU3OS44ODMgODQ2LjczNSA1ODAuNzY3IDg0OC4yOTlDNTgxLjY4NSA4NDkuODI5IDU4Mi45NDMgODUxLjAzNiA1ODQuNTQxIDg1MS45MkM1ODYuMTczIDg1Mi43NyA1ODguMDI1IDg1My4xOTUgNTkwLjA5OSA4NTMuMTk1QzU5MS43MzEgODUzLjE5NSA1OTMuMjQ0IDg1Mi45MDYgNTk0LjYzOCA4NTIuMzI4QzU5Ni4wNjYgODUxLjc1IDU5Ny4yOSA4NTAuODY2IDU5OC4zMSA4NDkuNjc2TDYwMC4zNSA4NTIuMDIyQzU5OS4xNiA4NTMuNDUgNTk3LjY2NCA4NTQuNTM4IDU5NS44NjIgODU1LjI4NkM1OTQuMDk0IDg1Ni4wMzMgNTkyLjEzOSA4NTYuNDA3IDU4OS45OTcgODU2LjQwN1pNNjE2LjU5NCA4NTYuNDA3QzYxNC4zODQgODU2LjQwNyA2MTIuMjkzIDg1Ni4xMDEgNjEwLjMyMSA4NTUuNDg5QzYwOC4zNDkgODU0Ljg0NCA2MDYuODAyIDg1NC4wNDUgNjA1LjY4IDg1My4wOTNMNjA3LjMxMiA4NTAuMjM3QzYwOC40IDg1MS4wNTMgNjA5Ljc5NCA4NTEuNzY3IDYxMS40OTQgODUyLjM3OUM2MTMuMTk0IDg1Mi45NTcgNjE0Ljk3OSA4NTMuMjQ2IDYxNi44NDkgODUzLjI0NkM2MTkuMzk4IDg1My4yNDYgNjIxLjIzNCA4NTIuODU1IDYyMi4zNTYgODUyLjA3M0M2MjMuNDc4IDg1MS4yNTcgNjI0LjAzOSA4NTAuMTg2IDYyNC4wMzkgODQ4Ljg2QzYyNC4wMzkgODQ3Ljg3NCA2MjMuNzE2IDg0Ny4xMDkgNjIzLjA3IDg0Ni41NjVDNjIyLjQ1OCA4NDUuOTg3IDYyMS42NDIgODQ1LjU2MiA2MjAuNjIyIDg0NS4yOUM2MTkuNjAyIDg0NC45ODQgNjE4LjQ2NCA4NDQuNzI5IDYxNy4yMDYgODQ0LjUyNUM2MTUuOTQ4IDg0NC4zMjEgNjE0LjY5IDg0NC4wODMgNjEzLjQzMiA4NDMuODExQzYxMi4yMDggODQzLjUzOSA2MTEuMDg2IDg0My4xNDggNjEwLjA2NiA4NDIuNjM4QzYwOS4wNDYgODQyLjA5NCA2MDguMjEzIDg0MS4zNjMgNjA3LjU2NyA4NDAuNDQ1QzYwNi45NTUgODM5LjUyNyA2MDYuNjQ5IDgzOC4zMDMgNjA2LjY0OSA4MzYuNzczQzYwNi42NDkgODM1LjMxMSA2MDcuMDU3IDgzNC4wMDIgNjA3Ljg3MyA4MzIuODQ2QzYwOC42ODkgODMxLjY5MSA2MDkuODc5IDgzMC43OSA2MTEuNDQzIDgzMC4xNDRDNjEzLjA0MSA4MjkuNDY0IDYxNC45NzkgODI5LjEyNCA2MTcuMjU3IDgyOS4xMjRDNjE4Ljk5MSA4MjkuMTI0IDYyMC43MjQgODI5LjM2MiA2MjIuNDU4IDgyOS44MzhDNjI0LjE5MiA4MzAuMjggNjI1LjYyIDgzMC44NzUgNjI2Ljc0MiA4MzEuNjIzTDYyNS4xNjEgODM0LjUyOUM2MjMuOTcxIDgzMy43MTMgNjIyLjY5NiA4MzMuMTM1IDYyMS4zMzYgODMyLjc5NUM2MTkuOTc2IDgzMi40MjEgNjE4LjYxNyA4MzIuMjM0IDYxNy4yNTcgODMyLjIzNEM2MTQuODQzIDgzMi4yMzQgNjEzLjA1OCA4MzIuNjU5IDYxMS45MDIgODMzLjUwOUM2MTAuNzggODM0LjMyNSA2MTAuMjE5IDgzNS4zNzkgNjEwLjIxOSA4MzYuNjcxQzYxMC4yMTkgODM3LjY5MSA2MTAuNTI1IDgzOC40OSA2MTEuMTM3IDgzOS4wNjhDNjExLjc4MyA4MzkuNjQ2IDYxMi42MTYgODQwLjEwNSA2MTMuNjM2IDg0MC40NDVDNjE0LjY5IDg0MC43NTEgNjE1LjgyOSA4NDEuMDA2IDYxNy4wNTMgODQxLjIxQzYxOC4zMTEgODQxLjQxNCA2MTkuNTUxIDg0MS42NjkgNjIwLjc3NSA4NDEuOTc1QzYyMi4wMzMgODQyLjI0NyA2MjMuMTcyIDg0Mi42MzggNjI0LjE5MiA4NDMuMTQ4QzYyNS4yNDYgODQzLjYyNCA2MjYuMDc5IDg0NC4zMjEgNjI2LjY5MSA4NDUuMjM5QzYyNy4zMzcgODQ2LjEyMyA2MjcuNjYgODQ3LjI5NiA2MjcuNjYgODQ4Ljc1OEM2MjcuNjYgODUwLjMyMiA2MjcuMjE4IDg1MS42ODIgNjI2LjMzNCA4NTIuODM4QzYyNS40ODQgODUzLjk2IDYyNC4yMjYgODU0Ljg0NCA2MjIuNTYgODU1LjQ4OUM2MjAuOTI4IDg1Ni4xMDEgNjE4Ljk0IDg1Ni40MDcgNjE2LjU5NCA4NTYuNDA3WiIvPiYjeGE7PHBhdGggZmlsbD0iIzJBNkE5NSIgZD0iTTcyLjE5OTIgNjk2LjE0N0gzOS4xNzA5QzI4LjY4NTEgNjk2LjE0NyAyMC4xODQ3IDcwNC42NTIgMjAuMTg0NyA3MTUuMTQzVjczNC4xNjFDMjAuMTg0NyA3NDQuNjUyIDI4LjY4NTEgNzUzLjE1NyAzOS4xNzA5IDc1My4xNTdINzIuMTk5Mkg5Mi4xOTkyQzkyLjE5OTIgNzU5LjE1MSA3NS43NDUyIDc3My4xNTIgNjIuMjQzMSA3NzMuMTUySDM5LjE3MDlDMTcuNjQ3NCA3NzMuMTUyIDAuMTk5MjE5IDc1NS42OTUgMC4xOTkyMTkgNzM0LjE2MVY3MTUuMTQzQzAuMTk5MjE5IDY5My42MDkgMTcuNjQ3NCA2NzYuMTUyIDM5LjE3MDkgNjc2LjE1Mkg2Mi4yNDMxQzc3LjI0NTIgNjc2LjE1MiA5Mi4xOTkyIDY5MS42NTMgOTIuMTk5MiA2OTYuMTQ3SDcyLjE5OTJaIi8+JiN4YTs8cGF0aCBmaWxsPSIjMkE2QTk1IiBkPSJNMTEwLjE5OSA2NjguMTUyQzExMC4xOTkgNjU3LjEwNiAxMTkuMTU0IDY0OC4xNTIgMTMwLjE5OSA2NDguMTUyVjY0OC4xNTJWNzczLjE1MkgxMTAuMTk5VjY2OC4xNTJaIi8+JiN4YTs8cGF0aCBmaWxsPSIjMkE2QTk1IiBkPSJNMTk5LjAyNSA2NzYuMTc1QzIwNC4yMjUgNjc2LjE3NSAyMTAuMDM3IDY3NS45OTQgMjEzLjA0IDY3Ni42NTJDMjMyLjY1NiA2ODAuOTQ5IDI0NS4yMiA2OTUuNTAyIDI0NS4xOTkgNzE2Ljc3MlY3MzQuMTUyQzI0NS4xOTkgNzU1LjY5MSAyMjcuNzM4IDc3My4xNTIgMjA2LjE5OSA3NzMuMTUySDE4NC4wNzNDMTczLjA0IDc3My4xNTIgMTU1LjQ3NiA3NjQuNzggMTQ5LjUzNiA3NDguMTg0QzE0My41OTcgNzMxLjU4OCAxNTguMDQ1IDcxMC43NjkgMTgwLjk5NyA3MTAuNzY5SDIyNS4xOTRDMjI1LjE5NCA3MDMuNzMgMjE3LjA0MSA2OTYuMTMxIDIwMy40NDEgNjk2LjEzMUgxNTEuOTc1VjY5Ni4xMzFDMTU5LjE0MSA2ODMuNzc4IDE3Mi4zNDEgNjc2LjE3NSAxODYuNjIyIDY3Ni4xNzVMMTk5LjAyNSA2NzYuMTc1Wk0yMDIuNzY4IDc1My4wNTRDMjE1LjE1MyA3NTMuMDU0IDIyNS4xOTQgNzQzLjAxMyAyMjUuMTk0IDczMC42MjdWNzMwLjYyN0gxODAuOTk3QzE2NC40NzMgNzMwLjYyNyAxNjQuNDM3IDc1My4wNTQgMTgwLjk5NyA3NTMuMDU0SDIwMi43NjhaIi8+JiN4YTs8cGF0aCBmaWxsPSIjMkE2QTk1IiBkPSJNMjgzLjE5NCA2OTYuMTUyTDI4My4xOTQgNzM0LjE4QzI4My4xOTQgNzQ0LjY2NiAyOTEuNjk5IDc1My4xNjcgMzAyLjE5IDc1My4xNjdMMzIxLjIwOSA3NTMuMTY3QzMzMS43IDc1My4xNjcgMzQwLjIwNCA3NDQuNjY2IDM0MC4yMDQgNzM0LjE4TDM0MC4yMDQgNjk2LjE1MkwzNDAuMjA0IDY3Ni4xNTJDMzQ2LjE5OCA2NzYuMTUyIDM2MC4xOTkgNjkyLjYwNiAzNjAuMTk5IDcwNi4xMDlMMzYwLjE5OSA3MzQuMThDMzYwLjE5OSA3NTUuNzA0IDM0Mi43NDMgNzczLjE1MiAzMjEuMjA5IDc3My4xNTJMMzAyLjE5IDc3My4xNTJDMjgwLjY1NiA3NzMuMTUyIDI2My4xOTkgNzU1LjcwNCAyNjMuMTk5IDczNC4xOEwyNjMuMTk5IDcwNi4xMDlDMjYzLjE5OSA2OTEuMTA2IDI3OC43IDY3Ni4xNTIgMjgzLjE5NCA2NzYuMTUyTDI4My4xOTQgNjk2LjE1MloiLz4mI3hhOzxwYXRoIGZpbGw9IiMyQTZBOTUiIGQ9Ik00NzYuMTg1IDY0OC4xNTJDNDY1LjE0NyA2NDguMTUyIDQ1Ni4xOTkgNjU0LjI3OSA0NTYuMTk5IDY2NS4zM0w0NTYuMTk5IDY3Ni4wMzRINDE3LjE5OUMzOTUuNjYgNjc2LjAzNCAzNzguMTk5IDY5My41MTYgMzc4LjE5OSA3MTUuMDgxVjczNC4xMDRDMzc4LjE5OSA3NTUuNjcgMzk1LjY2IDc3My4xNTIgNDE3LjE5OSA3NzMuMTUySDQzNy4xOTlDNDU4LjczOCA3NzMuMTUyIDQ3Ni4xOTkgNzU1LjY3IDQ3Ni4xOTkgNzM0LjEwNFY2NzYuMDM0SDQ3Ni4xODVMNDc2LjE4NSA2NDguMTUyWk00NTYuMTk5IDY5Ni4wNThINDE3LjE5OUM0MDYuNzA2IDY5Ni4wNTggMzk4LjE5OSA3MDQuNTc1IDM5OC4xOTkgNzE1LjA4MVY3MzQuMTA0QzM5OC4xOTkgNzQ0LjYxMSA0MDYuNzA2IDc1My4xMjggNDE3LjE5OSA3NTMuMTI4SDQzNy4xOTlDNDQ3LjY5MyA3NTMuMTI4IDQ1Ni4xOTkgNzQ0LjYxMSA0NTYuMTk5IDczNC4xMDRWNjk2LjA1OFoiIGNsaXAtcnVsZT0iZXZlbm9kZCIgZmlsbC1ydWxlPSJldmVub2RkIi8+JiN4YTs8cGF0aCBmaWxsPSIjMkE2QTk1IiBkPSJNNTE0LjE5OSA2NDhDNTAzLjE1NCA2NDggNDk0LjE5OSA2NTYuOTU0IDQ5NC4xOTkgNjY4SDUxNC4xOTlWNjQ4Wk01MTQuMjE0IDY3Ni4xNTJINDk0LjIxNFY3NzMuMTUySDUxNC4yMTRWNjc2LjE1MloiIGNsaXAtcnVsZT0iZXZlbm9kZCIgZmlsbC1ydWxlPSJldmVub2RkIi8+JiN4YTs8cGF0aCBmaWxsPSIjMkE2QTk1IiBkPSJNNTcxLjMwOSA3NzMuMTUyQzU0OS45MTcgNzczLjE1MiA1MzIuNTQ1IDc1Ni4wMTQgNTMyLjI3NyA3MzQuNzcxQzUzMi4xOTMgNzI4LjEyOSA1MzIuMTkzIDcyMS40NzYgNTMyLjI3NyA3MTQuODMzQzUzMi41NTEgNjkzLjExMiA1NTAuMDIyIDY3Ni4xNTIgNTcxLjQxMyA2NzYuMTUySDU5MC40M0M2MDUuNDA5IDY3Ni4xNTIgNjE3LjI4NiA2ODMuNjA2IDYyNC4yMjMgNjk0LjM5N0M2MzAuNjkyIDcwNC40NjEgNjMwLjM4NyA3MTYuMDg5IDYzMC4wODcgNzI3LjU3QzYzMC4wMjMgNzI5Ljk4MiA2MjkuOTYgNzMyLjM4OCA2MjkuOTYgNzM0Ljc3MUg1NTIuMjk4QzU1Mi41NjMgNzQ1LjAwMiA1NjAuOTczIDc1My4yMTQgNTcxLjMwOSA3NTMuMjE0SDU5MC4zMjZINjI0LjgyM0M2MTguMTQ4IDc2NS4xMDkgNjA0Ljk4IDc3My4xNTIgNTkwLjMyNiA3NzMuMTUySDU3MS4zMDlaTTU1NC4yMTEgNzE1LjU0NEM1NTQuNDc2IDcwNS4zMTQgNTYyLjg4NiA2OTcuMTAyIDU3My4yMjIgNjk3LjEwMkg1OTIuMjM5QzYwMi41NzQgNjk3LjEwMiA2MTAuOTg0IDcwNS4zMTQgNjExLjI0OSA3MTUuNTQ0SDU4Mi43M0g1NTQuMjExWiIgY2xpcC1ydWxlPSJldmVub2RkIiBmaWxsLXJ1bGU9ImV2ZW5vZGQiLz4mI3hhOzxwYXRoIGZpbGw9IiMyQTZBOTUiIGQ9Ik0yNDguMDIzIDM2OS42NThDMjU4LjUxOCAzNjYuNTg5IDI2OC4yOTEgMzYzLjQ3MiAyNzYuOTkxIDM2MC4zOTFDMjcxLjg2NiAzMTkuNzY3IDI2OS4zMDYgMjgwLjExNyAyNzUuMzYyIDIzOS4zNzhDMjY1LjkyMSAyMzYuMjY1IDI1Ni41MTggMjMzLjIwMSAyNDYuOTM3IDIzMC43MDJDMjQxLjQwOCAyNzkuOTE1IDI0My4zNjggMzI3LjUwNSAyNDguMDIzIDM2OS42NThaIi8+JiN4YTs8cGF0aCBmaWxsPSIjMkE2QTk1IiBkPSJNMjczLjc4MSAyNC44NDA5QzI5OS45MzYgOS44NzUwNSAzMzIuMDU3IDkuODYzMjUgMzU4LjIyNCAyNC44MDk5TDUzMS42MzUgMTIzLjg2NkM1NTguMTQ2IDEzOS4wMSA1NzQuNTA5IDE2Ny4yMDEgNTc0LjUwOSAxOTcuNzMzVjQwMC41OTFDNTc0LjUwOSA0MzAuOTE2IDU1OC4zNjYgNDU4Ljk0NyA1MzIuMTM5IDQ3NC4xNjhMMzU4LjU2IDU3NC45QzMzMi4yMjcgNTkwLjE4MSAyOTkuNzM1IDU5MC4yMjUgMjczLjM2MSA1NzUuMDE0TDk5LjQ1NzYgNDc0LjcxOEM3My4xMTgzIDQ1OS41MjcgNTYuODg5NiA0MzEuNDMzIDU2Ljg4OTYgNDAxLjAyN1YxOTguMjc5QzU2Ljg4OTYgMTY3Ljc2OSA3My4yMjg0IDEzOS41OTYgOTkuNzA5NSAxMjQuNDQ0TDI3My43ODEgMjQuODQwOVpNNTIwLjQ1NyAxNDIuNzFMMzQ4LjE1NiA0NC4yODgyQzMxNi40NjQgODguOTU1MiAyOTcuNDk1IDE0NC43MDkgMjg0LjYxNCAxOTcuMzAyQzI3NS4xMTIgMTkzLjI1IDI2NC4zOTkgMTg4Ljg3MiAyNTQuMjkyIDE4NS4xOTJDMjYxLjI0MiAxMzkuMjM0IDI2OS4yNTcgOTMuMTc4MiAyNzguMjA3IDQ3LjU0ODRDMjIxLjY5NCA3OS44ODUgMTYzLjExIDExMC4wNzkgMTA4LjEyOCAxNDQuOTQyQzIxMy42MiAxNzguMjk2IDMyMi43MzIgMjEyLjMzNyA0MTMuMDU2IDI3OC4zNjdDNDA3LjQ3NSAyODMuNjYgNDAxLjE0NiAyODguOTM0IDM5MS43MjggMjk2LjYyOUMzMTEuNjIzIDIyOC4wNjcgMjExLjE2MSAxOTkuOTMyIDc4Ljc5NjcgMjA3LjY4NlYzOTcuODMxQzkwLjQ5MzUgMzk4LjYzIDEwMi40NzEgMzk5LjQyNSAxMTMuOTY1IDM5OS4wNzVDMzExLjI5NSAzOTMuMDY4IDQ1MC44NTMgMjk3LjM5NSA1MjAuNDU3IDE0Mi43MVpNMTA4Ljg4MiA0NTQuODM1QzE2NC4yNSA0ODguODYyIDIyMS42ODggNTE5LjkyMyAyNzcuOTg4IDU1Mi4zOTNDMjY4Ljg3MyA1MDQuODQ5IDI2MS4xOSA0NjAuMDE4IDI1NC4xMSA0MTIuMTE5QzI2NC45ODIgNDA4LjQxOSAyNzcuNDM4IDQwMy4zMjkgMjg0LjUxMSA0MDAuNDA1QzI5Ny44NzQgNDU2LjI3NCAzMTguMDE5IDUwNy4wMjYgMzQ5LjExNiA1NTUuMDUyTDUxNi4yMjggNDU4LjA3MkM1MDIuMzc2IDQwNy42NzYgNDU5LjA2OCAzNjIuNzc3IDQyMy44MzcgMzI3LjIxN0M0MzIuODU0IDMyMS4wNjkgNDQxLjQyNiAzMTQuMzE4IDQ0OS45OCAzMDcuNTQ5QzQ4NS4zODcgMzM2LjYwNSA1MTguMjE1IDM2Ni40NTMgNTUyLjYwMiAzOTYuNjk0VjIwNS41OTZDNTM3Ljk2OSAyMTkuMDM4IDUxNS42MDEgMjM5LjM2MSA0ODkuNDQxIDI2Mi4zNzZDMzc5LjIxNSAzNTkuMzQ2IDM0MC45NDIgMzczLjE0NSAxMDguODgyIDQ1NC44MzVaIiBjbGlwLXJ1bGU9ImV2ZW5vZGQiIGZpbGwtcnVsZT0iZXZlbm9kZCIvPiYjeGE7PC9zdmc+;container=0;" parent="mnFBNAugpN4PRXguCW-v-79" vertex="1">
          <mxGeometry x="52.79434385207422" y="152.09845124498514" width="45.658818046853206" height="62.974834001715465" as="geometry" />
        </mxCell>
        <mxCell id="mnFBNAugpN4PRXguCW-v-3" value="" style="shape=delay;whiteSpace=wrap;html=1;rotation=90;fillColor=#7EA6E0;strokeColor=none;movable=1;resizable=1;rotatable=1;deletable=1;editable=1;locked=0;connectable=1;container=0;" parent="mnFBNAugpN4PRXguCW-v-79" vertex="1">
          <mxGeometry x="306.65" y="118.77" width="170.55" height="101.27" as="geometry" />
        </mxCell>
        <mxCell id="mnFBNAugpN4PRXguCW-v-4" value="" style="sketch=0;pointerEvents=1;shadow=0;dashed=0;html=1;strokeColor=none;fillColor=#7EA6E0;labelPosition=center;verticalLabelPosition=bottom;outlineConnect=0;verticalAlign=top;align=center;shape=mxgraph.office.clouds.private_cloud;movable=1;resizable=1;rotatable=1;deletable=1;editable=1;locked=0;connectable=1;container=0;" parent="mnFBNAugpN4PRXguCW-v-79" vertex="1">
          <mxGeometry x="329.18" y="23.11" width="125.5" height="57.79" as="geometry" />
        </mxCell>
        <mxCell id="mnFBNAugpN4PRXguCW-v-6" value="" style="sketch=0;pointerEvents=1;shadow=0;dashed=0;html=1;strokeColor=none;fillColor=#FFCE9F;labelPosition=center;verticalLabelPosition=bottom;outlineConnect=0;verticalAlign=top;align=center;shape=mxgraph.office.clouds.private_cloud;movable=1;resizable=1;rotatable=1;deletable=1;editable=1;locked=0;connectable=1;container=0;" parent="mnFBNAugpN4PRXguCW-v-79" vertex="1">
          <mxGeometry x="199.76999999999998" y="23.08" width="121.01" height="57.79" as="geometry" />
        </mxCell>
        <mxCell id="mnFBNAugpN4PRXguCW-v-7" value="" style="sketch=0;pointerEvents=1;shadow=0;dashed=0;html=1;strokeColor=none;fillColor=#E1D5E7;labelPosition=center;verticalLabelPosition=bottom;outlineConnect=0;verticalAlign=top;align=center;shape=mxgraph.office.clouds.private_cloud;movable=1;resizable=1;rotatable=1;deletable=1;editable=1;locked=0;connectable=1;container=0;" parent="mnFBNAugpN4PRXguCW-v-79" vertex="1">
          <mxGeometry x="460" y="20" width="122.35" height="60.79" as="geometry" />
        </mxCell>
        <mxCell id="A9lcRzsNaUA_099K9vEG-4" value="" style="shape=image;imageAspect=0;aspect=fixed;verticalLabelPosition=bottom;verticalAlign=top;image=data:image/svg+xml,PHN2ZyB4bWxucz0iaHR0cDovL3d3dy53My5vcmcvMjAwMC9zdmciIHZpZXdCb3g9IjAgLTE2LjMzIDE2MS42NyAxNjEuNjciIGhlaWdodD0iODAwcHgiIHdpZHRoPSI4MDBweCI+PHBhdGggZmlsbD0iIzAwNzJjNiIgZD0ibTg4LjMzIDAtNDcuNjYgNDEuMzMtNDAuNjcgNzNoMzYuNjd6bTYuMzQgOS42Ny0yMC4zNCA1Ny4zMyAzOSA0OS03NS42NiAxM2gxMjR6Ii8+PC9zdmc+;" parent="mnFBNAugpN4PRXguCW-v-79" vertex="1">
          <mxGeometry x="369.18" y="33.85" width="46.47" height="46.47" as="geometry" />
        </mxCell>
        <mxCell id="A9lcRzsNaUA_099K9vEG-8" value="" style="shape=image;imageAspect=0;aspect=fixed;verticalLabelPosition=bottom;verticalAlign=top;image=data:image/svg+xml,PHN2ZyB4bWxucz0iaHR0cDovL3d3dy53My5vcmcvMjAwMC9zdmciIHdpZHRoPSIyNTAwIiB2aWV3Qm94PSItLjEgMS4xIDMwNC45IDE3OS44IiBoZWlnaHQ9IjE0NjUiPjxwYXRoIGZpbGw9IiMyNTJmM2UiIGQ9Im04Ni40IDY2LjRjMCAzLjcuNCA2LjcgMS4xIDguOS44IDIuMiAxLjggNC42IDMuMiA3LjIuNS44LjcgMS42LjcgMi4zIDAgMS0uNiAyLTEuOSAzbC02LjMgNC4yYy0uOS42LTEuOC45LTIuNi45LTEgMC0yLS41LTMtMS40LTEuNC0xLjUtMi42LTMuMS0zLjYtNC43LTEtMS43LTItMy42LTMuMS01LjktNy44IDkuMi0xNy42IDEzLjgtMjkuNCAxMy44LTguNCAwLTE1LjEtMi40LTIwLTcuMnMtNy40LTExLjItNy40LTE5LjJjMC04LjUgMy0xNS40IDkuMS0yMC42czE0LjItNy44IDI0LjUtNy44YzMuNCAwIDYuOS4zIDEwLjYuOHM3LjUgMS4zIDExLjUgMi4ydi03LjNjMC03LjYtMS42LTEyLjktNC43LTE2LTMuMi0zLjEtOC42LTQuNi0xNi4zLTQuNi0zLjUgMC03LjEuNC0xMC44IDEuM3MtNy4zIDItMTAuOCAzLjRjLTEuNi43LTIuOCAxLjEtMy41IDEuM3MtMS4yLjMtMS42LjNjLTEuNCAwLTIuMS0xLTIuMS0zLjF2LTQuOWMwLTEuNi4yLTIuOC43LTMuNXMxLjQtMS40IDIuOC0yLjFjMy41LTEuOCA3LjctMy4zIDEyLjYtNC41IDQuOS0xLjMgMTAuMS0xLjkgMTUuNi0xLjkgMTEuOSAwIDIwLjYgMi43IDI2LjIgOC4xIDUuNSA1LjQgOC4zIDEzLjYgOC4zIDI0LjZ2MzIuNHptLTQwLjYgMTUuMmMzLjMgMCA2LjctLjYgMTAuMy0xLjhzNi44LTMuNCA5LjUtNi40YzEuNi0xLjkgMi44LTQgMy40LTYuNHMxLTUuMyAxLTguN3YtNC4yYy0yLjktLjctNi0xLjMtOS4yLTEuN3MtNi4zLS42LTkuNC0uNmMtNi43IDAtMTEuNiAxLjMtMTQuOSA0cy00LjkgNi41LTQuOSAxMS41YzAgNC43IDEuMiA4LjIgMy43IDEwLjYgMi40IDIuNSA1LjkgMy43IDEwLjUgMy43em04MC4zIDEwLjhjLTEuOCAwLTMtLjMtMy44LTEtLjgtLjYtMS41LTItMi4xLTMuOWwtMjMuNS03Ny4zYy0uNi0yLS45LTMuMy0uOS00IDAtMS42LjgtMi41IDIuNC0yLjVoOS44YzEuOSAwIDMuMi4zIDMuOSAxIC44LjYgMS40IDIgMiAzLjlsMTYuOCA2Ni4yIDE1LjYtNjYuMmMuNS0yIDEuMS0zLjMgMS45LTMuOXMyLjItMSA0LTFoOGMxLjkgMCAzLjIuMyA0IDEgLjguNiAxLjUgMiAxLjkgMy45bDE1LjggNjcgMTcuMy02N2MuNi0yIDEuMy0zLjMgMi0zLjkuOC0uNiAyLjEtMSAzLjktMWg5LjNjMS42IDAgMi41LjggMi41IDIuNSAwIC41LS4xIDEtLjIgMS42cy0uMyAxLjQtLjcgMi41bC0yNC4xIDc3LjNjLS42IDItMS4zIDMuMy0yLjEgMy45cy0yLjEgMS0zLjggMWgtOC42Yy0xLjkgMC0zLjItLjMtNC0xcy0xLjUtMi0xLjktNGwtMTUuNS02NC41LTE1LjQgNjQuNGMtLjUgMi0xLjEgMy4zLTEuOSA0cy0yLjIgMS00IDF6bTEyOC41IDIuN2MtNS4yIDAtMTAuNC0uNi0xNS40LTEuOHMtOC45LTIuNS0xMS41LTRjLTEuNi0uOS0yLjctMS45LTMuMS0yLjhzLS42LTEuOS0uNi0yLjh2LTUuMWMwLTIuMS44LTMuMSAyLjMtMy4xLjYgMCAxLjIuMSAxLjguM3MxLjUuNiAyLjUgMWMzLjQgMS41IDcuMSAyLjcgMTEgMy41IDQgLjggNy45IDEuMiAxMS45IDEuMiA2LjMgMCAxMS4yLTEuMSAxNC42LTMuM3M1LjItNS40IDUuMi05LjVjMC0yLjgtLjktNS4xLTIuNy03cy01LjItMy42LTEwLjEtNS4ybC0xNC41LTQuNWMtNy4zLTIuMy0xMi43LTUuNy0xNi0xMC4yLTMuMy00LjQtNS05LjMtNS0xNC41IDAtNC4yLjktNy45IDIuNy0xMS4xczQuMi02IDcuMi04LjJjMy0yLjMgNi40LTQgMTAuNC01LjJzOC4yLTEuNyAxMi42LTEuN2MyLjIgMCA0LjUuMSA2LjcuNCAyLjMuMyA0LjQuNyA2LjUgMS4xIDIgLjUgMy45IDEgNS43IDEuNnMzLjIgMS4yIDQuMiAxLjhjMS40LjggMi40IDEuNiAzIDIuNS42LjguOSAxLjkuOSAzLjN2NC43YzAgMi4xLS44IDMuMi0yLjMgMy4yLS44IDAtMi4xLS40LTMuOC0xLjItNS43LTIuNi0xMi4xLTMuOS0xOS4yLTMuOS01LjcgMC0xMC4yLjktMTMuMyAyLjhzLTQuNyA0LjgtNC43IDguOWMwIDIuOCAxIDUuMiAzIDcuMXM1LjcgMy44IDExIDUuNWwxNC4yIDQuNWM3LjIgMi4zIDEyLjQgNS41IDE1LjUgOS42czQuNiA4LjggNC42IDE0YzAgNC4zLS45IDguMi0yLjYgMTEuNi0xLjggMy40LTQuMiA2LjQtNy4zIDguOC0zLjEgMi41LTYuOCA0LjMtMTEuMSA1LjYtNC41IDEuNC05LjIgMi4xLTE0LjMgMi4xeiIvPjxnIGZpbGwtcnVsZT0iZXZlbm9kZCIgZmlsbD0iI2Y5MCIgY2xpcC1ydWxlPSJldmVub2RkIj48cGF0aCBkPSJtMjczLjUgMTQzLjdjLTMyLjkgMjQuMy04MC43IDM3LjItMTIxLjggMzcuMi01Ny42IDAtMTA5LjUtMjEuMy0xNDguNy01Ni43LTMuMS0yLjgtLjMtNi42IDMuNC00LjQgNDIuNCAyNC42IDk0LjcgMzkuNSAxNDguOCAzOS41IDM2LjUgMCA3Ni42LTcuNiAxMTMuNS0yMy4yIDUuNS0yLjUgMTAuMiAzLjYgNC44IDcuNnoiLz48cGF0aCBkPSJtMjg3LjIgMTI4LjFjLTQuMi01LjQtMjcuOC0yLjYtMzguNS0xLjMtMy4yLjQtMy43LTIuNC0uOC00LjUgMTguOC0xMy4yIDQ5LjctOS40IDUzLjMtNSAzLjYgNC41LTEgMzUuNC0xOC42IDUwLjItMi43IDIuMy01LjMgMS4xLTQuMS0xLjkgNC05LjkgMTIuOS0zMi4yIDguNy0zNy41eiIvPjwvZz48L3N2Zz4=;" parent="mnFBNAugpN4PRXguCW-v-79" vertex="1">
          <mxGeometry x="231.22" y="46.809999999999995" width="58.12" height="34.09" as="geometry" />
        </mxCell>
        <mxCell id="atH9GIuNGDAV8smoVHld-11" value="" style="endArrow=classic;startArrow=classic;html=1;rounded=0;dashed=1;fontColor=#4F698C;strokeColor=#59769E;" parent="mnFBNAugpN4PRXguCW-v-79" edge="1">
          <mxGeometry width="50" height="50" relative="1" as="geometry">
            <mxPoint x="130" y="212" as="sourcePoint" />
            <mxPoint x="170" y="212" as="targetPoint" />
            <Array as="points" />
          </mxGeometry>
        </mxCell>
        <mxCell id="atH9GIuNGDAV8smoVHld-15" value="" style="shape=image;verticalLabelPosition=bottom;labelBackgroundColor=default;verticalAlign=top;aspect=fixed;imageAspect=0;image=data:image/png,iVBORw0KGgoAAAANSUhEUgAAAIAAAAB8CAYAAAChbripAAAABmJLR0QA/wD/AP+gvaeTAAAY4UlEQVR4nO2deWBU1fXHv+fNmkwmmWzDEmQRArITiLKERav81Cq0KgjS1rqidasLiIKldanWn/v2U+tSwA2U2oq2tLLIIgIiIRAiYQkEAoGEbGSSzP7O74+ZN3mZrJO8eTOJ+fyV+967753JO+/ec885917gJwQzEzNfysx/Y+Z8Zq5j5hJm3sfMzzDzqEjL2E0YYGaBmWcw8y5unW+ZeUakZe5GAZhZx8w3MvOBNrz4YHYz82xmpkj/jnDSJX8cM8cCuA3AAgDnBZ12nDzr2bM1z+E5etpriI8V3OelCp5Lx8QkmWOF4QCEoOv3AngGwGdEJIZfenXpUgrAzAkA7gbwewDWBueAinXZ9txnP60eXVXrtTRVv18PTdHjv04qHNlfdxEAQ9DpQwCeBfAhEbnCIH5E6BIKwMwpAO4BcB+ARPk5kVG2Icee99Qn5zJq7GJ8W+6XHC+ULZyVkHfZmJgMIgTXOQPgZQCvEVGdEvJHkk6tAMzcA8ADAO4FECs/5xVxcvXWmqOvfGG70OnmmPbcP8Ek2B6enbDv8nExwyhIsQCUAXgDwCtEVNme+0cDnVIBmHkAgPsBzAdglJ9zeXFixTpb8V/X2jK9IrRKPM9koNq7Z5h3z54SN1gQ0DPotA3A3wD8hYhOK/E8NelUCsDMIwEsBHAD0PDlOlx88L11NWXLvrZNEEVowvF8nZZcv7ksbtf8K8xpOg36B512AlgO4CkiKgrH88NBp1AAZs4A8CiAWQiS2VYn5r74j2rHlzvrMpnV+T0CQbx+atzO+35hthp0NDDotAvAKgB/JqKDasjTEaJaAZh5MoBFAK4OPldVK+Y9+XEVNu1zDFdfMh8CQbx6fOzuBbMSYk0GCpZDBPBvAH8iot0REK9NRJ0C+B0vVwNYDGBC0GnxTJV399LllXG7j7iGqi9d80waasxdMi/B0dOiubCJ0+sBLCWi7WrL1RpRowDMLAC4CsCfAIwNOu0uOO35fsnyyl6HT7nPV124EJg41JD72DyLo6dFk4nG/99tAJ4loi8jIFqTRFwBmFkPYC6AJQAGB512Hjrl2fPI3yr6HS/x9FJfuvYzor/+0NJ5lrMDe2knAI2M0hwAL8HnVIqodzFiCsDMJtS7a/s0PIfa3Uecu/+wouqC0iqvtckbdBL6WjVFS+ZajmWmG8ajsXdxP4DnAHxMRB71pYuAAjBzPICbATwCNBxTi8wVG3Icuc+srB59rq5pd21nJS1ZU7z0V5YjmemGTAQ5rQAUwuddfJuIHGrKpZoCMHMq6v30DV6uyDj7dbb90NMrqzJqHRz8z+lSJJmF8odnJ+y/bEzMGCIkBJ0uAfAWgBeJqFoNecKuAMzcD8CD8DX3we7aotVba469vMZ2kcvFxiZv0EUxGajm7hnm7NlT4y4QCMHdnORmfpWIKsIpR9gUgJkHwhecuQNBfZ/TxUfeXVdTsvxr23il3LWdlViDUHvPjLjds6fEpQsCgg3dGgDvwzdyKA7H8xVXAH9a1QIA8xBk/TpcnP/O2prqFRtsF4oqee06C5Kb+fYr4nrrNTQg6LQTwKcAniCiI0o+V7GXwMxZ8Bl2VwXfV3LXrtlR15STpBsZkndx4ayEuFgDBTu73ABWAniGiA4o8bwOK0BL7tqz5zx7//jBOe3Og86IuWsBQBCAKcONmDrCiP49tDAZCRU1Ig6ccGPdHjvyi9yRFK9JiMAzxsf+8OA18THmWGFE0GnJzfwEEe3q0HPaW5GZhwF4E8DUoFPeojLPtiXLqlLyjruGdUQ4JcgYqMejcywY2Kt5U2PTPgeeXlWF8urozPi6ZHTM/kfmJIgpZiE4a5kBfATgISIqbc+926UAzDwTvj5Jbty58k+6tz+2rLLvsRJPcB8WEa7MjMEff22BTtP6zyyp8uKu18tRWBIRf0ybGJeuP7T0Bkttn1TtGDR8d2cAXEpEP4Z6z5AVgJmnAlgHQC8dO1Xu3XHna+V9i8s9vUO9X7gYM1CPt+5NbtPLlyg668FvniuDzR6dLYHE6PP1+a/dlewNikCWAsgIdbQQnAHbIswcA+Bd1L98XrGhdsvMP5VMiKaXLxCwaHZCSC8fAM5L1eKWy+PCJJVy7D3quuDihaeH5hY6t8oOWwG8Fuq9QlIAAHMApEuFNdvtW17557lgGyDiTBxmxOA0XbvqXj/FBKM++keoIkO4+cXyySdKPfIQ87XMHJLBHaoCzJX+qHVy3pMrKyeHWF8Vpo4Ijrm0HaOeMH5I++urCTPo1pfLBjMg9xbOC+UebVYAf9g28LW/scZWHa7cu47Sv0fHnIv9rJ3HOVlhE5N35jtzZYcuC6V+KC3AWABSenXdP7fXjgnlQWqSEBtqw9YQS1zH6qvNe/+pkccSMvwzo9pEKL800NxX1ogH25trrwbUwS68o/XVJueocwgzpOihDkCbPa6hKMCkwAMLXOdCqNdNmBEZQnm1eFh2KKutdUNRgInSHxty7OYQ6nWjAtkFrhpZUVkFYOZBqM/eEb894Exv6fpu1Gddtl2eXDLJn2TbKm01dwMa5XRxga1WDKsCXHCeDpePi8GAHlrodaF3yL2TO2bFT8+IwZA+ofsRauyM3EIX1u6yo6za2yEZQmVHvjMdgAe+d2oBMBRAXmv1QlaAQ8We05A5g5Qk1kBYMteCy8fFRNQQ65WkQa+k9o1wLx1jxJ0/N+PNf9nw4caa1isoRJ1TNNmdnB9joAv8h7LQBgVoqw0QMAA37bOHZeyv1xJevysZV2RG9uUrgVFPeOCaeNwzo02z0RXjQJFLHhFskx3QqgIws9ScAAA27rX3DV201rntijiMPl/f+oWdiJumx2FcunpexW/2OeX9ljIKAN/XLwCAyCg9UeoNXnKlwxj1hHmXRH8QJlSIgFtVDC5tzLHLZ00NZObgqeyNaIsCBDTpVJnnaHsEa42xg/SI6QQBmPaQmW5QLbh0ptLbwyuyPBw8sdmL/YSkADvznc72CNYaPROjMqSgCBoB6GFR7/cVnfUWyoqtdgMtKgAzN3ArrstxprRbshbQa7vm1y/RnqFse9n2o1Oe0tQxBQCQgfrJHPa9R7sdQNHOumy7vN8f11pgqDUFCAz/qmrFQ24Pdy0zvQuSd8I1KCgwNK6l61tTgEATsveYu9OuhPVTQhQhVNhE+eSRFruB1hRAFgBymDoiWDfqkV3gtMmK7VMA/1JsaVLx2/32QQrI1o0KrN/jkLsgs1oKDLXUAtQHgNxccK5WDF4osZso5bs8xxD4AkOAb4HLIc1d25ICBAzAgtOeTrcA4k+ZOhfH2p1cIDvUbDfQphZgU66jaw/UuyD5Ra4SWXFSc9c1qQD+ZVwC+eUbc+yK+/+7CS+b9jnlof6QW4CJ8M/tFxllx854+ikoWzcq8E2uQx4YSmfmJhfbak4BAhpzusJT0Mw13UQxp8o8PUURUmCI0ExgqLmMoIACfJ/vtissWyO+zrZj79GGezDodYTUeA0G9NJi2kgjhp7Xvqle0YDVokGds+GE01oHo6omvJNQi8o8x/tZtdKczSwAXwRf00gBmFkD4CKpvG5PXVgCQHIqbCIqbM38M3KAd9bakJluwEPXxbd7zl8kefXOpCaPu9yMHw678OXOOqzfY4fIyj73uzynWzbLqUk7oKkuYDQAKYvBmVPgiooA0A+HnbjphTJ8nR32Bkk19DrCpGEGPHNzIpY9lKJ4WHxdjr2HrDiOufFKbE0pQEBTbHV80OnhqJkp6XQzHlteiR35YUlLiCjD++nxwcJUpCUrpwS5ha5BzJAyUw1oIjDUogLsPeqMugCQVwQeW16JmihfxKE9JJkFvHB7ErQhrmvQHKIITUVtyzOGmlKAgNNgw15HVM7/q6wR8dE3tZEWIyykp+lwzSTlFkvdc8QpX3G0ZQVg5r6o32ePv81zBO+GETX8e1fXsQWCuTZLOQVYv8chn8Y3KXgjzOAWIKAhLi8fq7CJyYpJojAnyzw4U6nu7Bu1GJymQ5JZmSnq3+U5BgOQ/lEpCFqSP/gp9QGgYs8pRSQIIyVVXVMBAKBXkjKLVNQ6Oc7haj4w1GwLsHV/9AeAxK5nBwbQKLhGxaFTrjOyYoPAUOAxzBwHYKRU3rDHnoYox5rQddPJSxTs3r7Z23xgSK5nE+D3DDJQXnDG018xCcKA1aJBbwXHzNHEibMeRbu3jXsd8mDeEP/eDQAaKkBAM0oqPAVq7cHXXqZndP5JpM2xZoeyWxKfLPOkiSKkpB6CbDc2uQIE+oZdh9xRvSlyrIFw0/SuN5cQAE5XePHJJuV9HCfLPIWyYuBjF4DAlm3jpYP/3WNvOnoRJSyea1FsmBRN2F2MBe9WwOFSOCoE4Lt8pzzc2lAB4DP+pCVGnLsPR+cMIIGAB66Jx5WZUemg7BDFFV7c+lJZ2JauX59tlyeEXMjsi/FI1qEsACQedrk5eH36iNPPqsXCWQmYODRqYlOKcPSMB1/trMPKzbVwupX/8iX2HXOlM6OWCCb4AkNjAWxvpAD7j7vKwyZFM+h1BGPQBEqDjmC1CBjQU4dpI42YOsKgWJBEbf68sgqnyhpa9Ta7iDOV3ubzIBTGK0JbVSvmJsYJGf5DWWhKATbuc6r+id0wzYT7fqHucipqklvoxuFTkd+VJOeos/qSUYHuMwvA8wIz9wYQGCdu3d8gmbCbLsSGPQ750GkyM5MA2RKwbi8Kz3byrVq7aZ4t+xsFhgYJkGWLnijxnIyEYN2oQ62DzU4Xy5f5mdRg/J9/yh29G+Z0owhlNlFu5I/XAgjM+i0u93RJ57rdxdi8z4GteQ4Ul3ths4tIjBMwOE2Hi0cZkZlu6LJu5WAqbKJLlnfYTwsgkDGSYtZ2uQD7mh11eONLW6OlW48ByD7iwsrNtRjRX49FsxMwrG/nSzkPlUSzIP+RiQKAQJMwZpCuy/wHRPaNvx//qKrVdXv3F7pw68tl+M/urptmJmG1CPJU8WIBwE6p1L+HdqhRT1EdCGorr6+pxufb2v5TXG7G0hWV+P5g10s5lxjVX39QryH5MD9HAPC5VCIg6eFZlu/VF01ZcgtdWLEh9IWavSKw9IMq2MMQjIkGnrrJUhV0aKUA32bEB6UjMycYL0zvo+vUE0Lf+NIGbuc7PHvOi9Vbu17K+Zwpph1pydrxskMfEdERgYi8AG6Db2dqEJFpxYIUMscInXJbmAqbiN2HO9aMd6XpZwAwuI/u2MLZCfIAXymABwF/OJiIvgWwQDqr19D5q5dYjwgCVBkVuL3KNbnZBc4OT7I8UORWtBtweyLXpZiMZFv2YAoTBeZ7egDMkTabDmRVENGrAN6TyikJwrj/vSVxK1SgtEq5iFjZuY7fi9nXFSiByEBphNLXBYL42RJrvkHXwPB7gIg2Ba4JqnMPgIAReMnomGk3XBK3HWHmh8NOeBXSgTqnMl9bnUOZ++wvdCkmU6i8OD95Sw+LRr6F3AdE9Lr8mgYKQEQOAL8E6leWeOia+FFD++rkEwwVp6pGxJcKJ0JGC8vXq7dtjJzrsmJ2ThlhmCY7lA3gjuDrGiXWEdFpALMAOH1lmJY/lBqTaKaK4GuV5JUvqnG8tGuFIr7aWYdN+xyqP3dwmvboo3MShwGBzO4SAL8gokbWbZOZlUS0HcD9UlkjoM+qR3oUhtMorK4TMf+VcuQUuFq/OMoRGfhkUy2e+Dh42B1+EmI1VSsWWjVEARe/G8D1RNRkpLfZCWhE9BYzZwCYDwDJ8cLYl25P2vz7tyumNVeno5RVe3HbK2W4eJQR0zNiMKi3rlGqWGtU1yljTJSe88IcE1rmcVWtiNxCF9bsqMPBk+pnAAkEcdXilCM6DTJlh+8loi3N1Wnxv+vfMGIDgCnSoZc+r97+4Tc1zS482E3keP2upM0ThxrlH+gyIrq5pTotqjgRuQFcD0BqPuiBa+MzMgbqD3RM1G6UZu60uK0Thxqnyg5tB3Bna/VabeOI6AyA2fAbhQBi3r4vOT7JLKiePdxN04zorz+0cFb8WNS36GcAzCaiVl2iberkiGgH/LYAAGgESvt0sfW4RkDXMts7IQkmofLd+5NjAEj7Objhe/ltWt+hzVYOEa0A8IZUTowTxr7+u6RtoQjbFdj4l5746vEerV+oAhoBnr8/Zj2u05B8Lee7/K79NhHqBLsHAGySChddYJw2/0qzKu7ibhrz1j2p2xLjhDGyQ68T0buh3CMkBfAbhbPgy6gCANzxc/OFmen6H0O5Tzcd56bpcdvGpuvkFv93AB4K9T4hT7ElonIA1wGQfLfGN+9JsSTHC2Wh3qub9jFqgD7/3pnxGbJDRQCuIaKQvWjtWomIiPYw8x0APgAAQUDvvy+x5k5fUhIfya3lRvbX49c/M2HMQD0sJgFVtSIKij34x/Y6rPPH+If00eHjRan4amcd3vtvDe6eaUbmIAMSTAJufP4sfjzhhkDA3ItNuC7LhN7JGlTWiNiwx4E3/1XdigThJyVeOPve/SnxqN/P0QHgOim8GyrtXoqKiD5k5nHwu4zNscLIN+9O2nLbK+VTW6kaFmZNNmHR9QnweBgb9zlw8qwHiWYBw/vqMXtybEABJHolabB8QQrKq0VszXPAZBTg8Tu6H51jwbVZsThV7lusgRm4LMOI4f2SIURwWQKtRnCvWmwtFgSMlh2+m4h2tfueHZRpAXxby18OABmDDFN/d7V565tf2aa0XE1Z0tN0WDQ7AdW1Im55qaxRUCm1icWkxqUbsGpLLZ5ffa5BAsm4dAOuzYrFoVNu3PJiWSAx5J3/2PDe/SkwxwiosUcmvv/O7xO3W0yC/AN7iYje78g9O6TP/nSyeQAC041uu9w8IWuYcV9H7hsqsybHQhCAt9famowoNpXcUVUj4tUvqhtlD80c75s9+/a/bQ2yghwuxv/9y4ZIccv/mLeNGmCQv/yNAB7u6H073KARUQWAawFImZS6l+9M6tkzSXOmhWqKMrK/z+zYfqDtuYAHT7mbXIplSB/f1IjsI43tqT1HIpMyftEQ4/67Z5jlAZ7jAOYSUYcdcYr0aES0F8CNABgABIJ15aLUMoO2dVekEphjfT8jlNSr5lK+4mIEeMWmo4p1TlY9ZTzVoil9466kZPhW9QAAO3xG31kl7q+YSUNEnwN4XiqbY4URyxaktNs4CQWb/2VZLSFMbWzmPdbYRWgEID628b8m1kCI0as3iVCrEdyrHkk9IwjoJTt8KxHtVuoZStu0jwBYKxUGp+km3zczvtlYtFLkFvqaayXWD5Li+GMHNR7Njh2k7uIp79+fvCPBJIySHXqOiD5R8hmKKgARiQB+BSCwe/Vvp8dNnDrCuFfJ5wTz2dY6iCJwx5VmyPbICdAjhJbhy52+4eIdPzc3+NqNesLvrjI3V01x7vtl/Jbh/XXy0dR6AIuVfo4yS1LLIKJKZp4JYAeAeAC6F+Yn9Z75x9LTpys9vVqp3i6OFLvx7OpzWDQ7ASsfScXmXAeKyrywmAQM76dDjV3E/FfbFr3+4bAT//iuDtdMisWnS6zYmGMHM/Cz0TEoPeebWh5uJgwx5P720jj5LJ5CADcoYfQFExa3BhEdAPBb1BuFqZ8tST1n0DVOSlSK1VtrcdvLZfjugBOZgw248VITpo40oMIm4tMtoWUcP72yCi9+Xg23hzFnmgmXj4vB5lwH7nuzPOwrlPdI0Ja8dleSFfVGXw2AmUQUFld7WC0aZn4KwBKpXFDs2Xb9M6Ut7mf/U0avJ8f6p3sWmAwkbdvL8A33Pg3XM8Pt2FwK4CupMLC3NmvBteE3Cjsr79+fukv28gHgmXC+fCDMCuA3CucBCISLb7gkbtIlo4w54XxuZ2TBdfGbh56nlRt9X8P3AYWVsIc2iMgGn6dQmm2sfe72pL59rZqicD+7szBxmHHfDRfHyff2PQzfBM6wBx1UiW0R0UH4PIUi4FuI4pNF1rqushpJR0hL1hS/emdSbwCS46EGvti+KrNKVAtuEtEaAE9KZaOehnywIPUn3RXo9eT45FFrlUCQ9mdmADcTUZ5aMqgd3X4cwGqpcH4v7aRH5yRsVlmGqGHZgyk/mAw0THboCSJa3WyFMKCqAhARA7gZQEDDZ002Tb7ywtgf1JQjGlg8N3HTkDTdZNmhNQCeUFsO1fNbiKgGPqNQ6uM0T95oOb+/VXtCbVkixWVjY7Kvy4qRv/x8AL/xj5pUJSIJTkR0CMAc+BcuJiDpsyVW7U9BCaaOMO79y02JQ1DvhrfBF96NSMJhRBdIZebFAP4cKAMV76y1/fjXtbasaN+1LFQMOrI/fXPizotHGieh3uIX4Zu3/1ULVcNKpBWAAKyCb+5hAK/IxbsPuQ7vOuzSniz3GEWxcyqDUU/eAVaNY+JwIw3urRtJFNiXSeIPRPRURITzE/F/LDPrAXwGYGakZVGZF4hoQeuXhZeI773mn8xwPYCn4V+rsItTAeD2aHj5QBS0AHKYeRB8HsOrAAwAkBhZiRSB4ZuufQi+ZXk/Dldotz38PwEcvJwQWr+sAAAAAElFTkSuQmCC;" parent="mnFBNAugpN4PRXguCW-v-79" vertex="1">
          <mxGeometry x="58.55" y="245.45000000000005" width="32.1" height="31.09" as="geometry" />
        </mxCell>
        <mxCell id="atH9GIuNGDAV8smoVHld-30" value="&lt;b style=&quot;font-size: 7px;&quot;&gt;&lt;font&gt;Input Manifest&lt;/font&gt;&lt;br style=&quot;font-size: 7px;&quot;&gt;&lt;/b&gt;" style="text;strokeColor=none;align=center;fillColor=none;html=1;verticalAlign=middle;whiteSpace=wrap;rounded=0;container=0;fontSize=7;fontColor=#4F698C;" parent="mnFBNAugpN4PRXguCW-v-79" vertex="1">
          <mxGeometry x="30.799999999999727" y="276.53999999999996" width="87.6" height="12.28" as="geometry" />
        </mxCell>
        <mxCell id="atH9GIuNGDAV8smoVHld-38" value="" style="endArrow=classic;startArrow=classic;html=1;rounded=0;dashed=1;entryX=0.502;entryY=0.981;entryDx=0;entryDy=0;entryPerimeter=0;exitX=0.5;exitY=0;exitDx=0;exitDy=0;strokeColor=#59769E;fontColor=#4F698C;" parent="mnFBNAugpN4PRXguCW-v-79" source="atH9GIuNGDAV8smoVHld-15" target="mnFBNAugpN4PRXguCW-v-51" edge="1">
          <mxGeometry width="50" height="50" relative="1" as="geometry">
            <mxPoint y="199" as="sourcePoint" />
            <mxPoint x="20" y="180.01999999999998" as="targetPoint" />
          </mxGeometry>
        </mxCell>
        <mxCell id="atH9GIuNGDAV8smoVHld-40" value="" style="shape=image;verticalLabelPosition=bottom;labelBackgroundColor=default;verticalAlign=top;aspect=fixed;imageAspect=0;image=data:image/webp,UklGRp4kAABXRUJQVlA4TJEkAAAv2QKQECb89/8d/+Pon6tt27atYGzbthHzG9vJ5JvJN3bSxU918s3nc1+v631dq/eZ2rayU9u2zfXud9auldOcb3JS3rVtm4PUtke1OWaRjNa7UW0NUuOafHdrt8N1uk67qJ11eZ9M056TOU0Hy6AarVPze06tnLrNlDm17Zkz52TPpKIoSbZp2/qsZ659177euLZt27Zt27Zt21w2R4+xKdzaZkiS/lZGRPbYnrZt27Zt27Zt290122fHiLTrNELaVoMxjDTCGEYaw0gjjGEkcCnBth23je7Fq7QnedWTCIDAB1essf02//nmoniSbmPk+0Km8zpLRrUf92kjatNCWKepoEJDQYG6/QyBvEQLdiPNxwk0V9vL7CxnM7esTd80Ng3jvSnqz01Ke2ASGmmxTlp7aMr6S9MxPpuJaWE2loOi83WCLMyNVruXon4/RxNBqVxtRO06iPt1mUwInS6KlG2KnR9JTNe8+GvpUbqiW0ss0HLUqAE/z0LcKHO03UzPNDIZ/THb1U5ef2qmppV5Of4qNxNW6SDuEy5dkYguaUmiZNs6jAc0HpR4/qwsey+2LeAU9GdmYdlYgBuqIT9fW1GHMOmSJHRDExIt29Vu3K1eP8ucbQ9T0V+xrWfecVd2u+F13n/yBEkmNRGUqTIt4yPb2g47fydEc2GN8Nkq7UYCutBxPKQ+P9scbBfbs0Wx2iK8OG1GHWLlhzQZnvTld5GM+7XHTFZ/zBbOyWiPzN52sbKgybTUtZ+ht4ie72k5bHSRqRpv2AI7XeOzAF6c9uIeQ+splthUWGHOtrvubQA+9yKtRa3i5qc003/OtxI1mYfjq3sbiFPSX7jI0RLSJU3E35Yf1gbk1I23/q+TZFjq2s+je9jw/73YxmWhxoISUbMd+oa/m58TbEgbnVPSX1q4G+uoOob24l7bqmFjNN88HT896xV6nrvjY5LaAzZSy1R9hC6hwLydQPlsvF5vQW64UOk8/UHYdMnC3BiT05+wUTt1453NJaO70RkkoHMN+nkGtaE7Sc1AwWDJNF3BV2Zp2bIl4C02lxx3rR+o9X9D2pLQr2CIdI5e4N+L2VJx2GbDatqAI5efvP6MLR3zFRleB3Dfgrak3O39lP/C/cwsK7bEvMVaVJ5Wo2bD2pJzyMpHVnQqHcKWoH5Vaqk3aehbln2VLUuvvUa15iGVr2fL1Jmalgoo9Fx/49SwZWu12ynydyz2r2TsdA1Da1ZfUuL7rVzDlrXXWa3i8u3d2zJ3hqapJSksFzyiLXvH+1tV7W41NeMtmwIWPYWCcpgZmCZsIugX0EuwEcXkFI+0CeH21qKU1OYl87Np4XVCpLOUkSf9mE0P5+0EUMNRyLWebJPEIXtVQMbxs6nijE1zkbMtikfnyZi92ZRxHKXrIrsbmzjurYCy0U7c7cU2fSzoRV+fmvUlnIvtySaRRzyagnG07dlUcg62qz9Src8+0iaUQ65UqWg77nJEm1ZeW50+Oda2bHL5qiep0ozyxW2K+cOnVCEW6kaxieaP/Z363OJ32sYnNt28rOLQaFCsjE0536EyPVi+NlvLkU08y5RWl9/2Ypt+PkZRftk4NgktPoKC0M1zbCpav59LPaaW355NR689llpQ2Saln/DIVikEXrjrWVl2bGJapvmwljIQLl32XJuenlsRWEsZm6I+56YqwALcMDZRLe6RraH/0IbP22S1Rj/EJ1K2YSr6azZlLU/7UfH5bNpakPJ3TrDJa6GNUJ3+bQL7jqFJzmm3ZJPYQ9ya4j2v8tpEtu3Po5rty0rxUkPuOYuLUzmTf/5J3W1+CvA/VkdDSlf3VcS+282QZM4CWp0yxtRWlxL/qoLSfLYMqWNMoDpYzNMyOpPLJnaMCahgkQ9JqEyjQRF6x5gAChZup4TG1ONnonSya8hNIhLfeY/oMSboGhF9CeDFI3uM6XKFgLosn/AxpvOlAtpyCdLHmM4WC0g7NJ7UIXYrS+4Q+ouVSB4iv9hKlSDGBFsroigjKkKMCbVZRE+WVEYVYkz43RJy7mginzrE+EY5IqMlw2+P0HGFfcQ6K6MkielKcULHNQZSsYQ3FIRckOWwhI6rrK0eJdljFRkpRui4zroaU1K/0xCRVxI6rrS+ZrTM3++ThpO8EjqutZH2NApSr5+N0HG1eehHq1ELQsf1tj6WQz1GKEPnuMNOFwloR5z82PboHPcYfo+EdGt/mabxgdrE9FGacIxH57jN2utTUr7SkI1z0zlutP7mNKrRRFCKznGrTfdi0Iyj0jlutp0pPIoRn85sj8xxu2G2iQjGdVQppo9VkouiyhRj8qb/rG9i8T8KFWMa78ygFUGTKUoVY9qezCFVuYquqFYxxmOvhFB8XrVihuv6qYpOUxgrV4xpoAWNTLXtULAY0+pIDo0Y+lUqFmMOSaMR8moWM5zXcw2F7uykaDGmoTY0AvW/UrYY0950HnmmoTqEusWYWOdkxOGRKheTlzh3cle6GNPSUBZp+oJfT+1iTMT9EsLwZNWLqb0eJf03/SMLjQSFlC/GNN+fRZYbKpSR0cK2qs3CsjUn291uuq38j+t9wIidJaP2vcQP/VFS0rnBgZb16AI9tx61ylX61+rwUhWZq+1lRqa5K0onxkTYJyEKNaWyB7Fi/Zd90hqX6ZL/oxnhSWXn6wSZqWnpVfKIqb0+hSazHh9bFstYLdZtr2v8mhtW7v3oC/b/finEmJaHs0gydWANGexfaTcthvUO7d455kbYXNErwo8xoxCEQvD/S35+ToiLWaSgBuOvu8g7sMfUU6Wo5bWh7ovmipUfsdiSp29XZFDcMaajuTxybJtpSNxcs7eHsyWNm59Yyyb9QMf4Jn+mIgaotxLpd/XTdGPpFcf280o/xDGmye4M9eszW+YFXzktW95rNB1WqgY4xkQ8ICEFiGeeL7QcYdaEXSuwl+SKcGPyUoJ/xPu2YvlTsFB2EPe7NtgY08EsHiFW+pwPbZ1zviJidXPLv9gKIfmPzM32ZkNlk4dhQW076vQjwoWEE9WPgLXgIkLvt/Rvt4UzxkQ7LiMC1YC+C9Pt+Cy4y/y/Gihj6m1CoQHLwdnH6hITMwCvUZef7noYY0yQVQIScAiYf/U1BuFYdXpp8kGMCVzEMnzTlyqtVMCv24kZiA85nR/AGNPWRI78mTgfRMYdn8F4658BGGOSPVGp0KpJdvtaSN0g+sQX00wfhvSLYW/jY1rGB3/HoDzHq9DFmNgXFIqzgqPuN8e4vEYedDENt6XJnX3Dy7aS5rplaIZOF1zH9aF0X8PPg2PQuwG8qWENaDH1Vikyp9NkBLhsA2OJ4GZp2RI9dFmVbjVovP82DNJerwcsps5GFDVZ8PPVkN5PaEsuCMGv7SOrXsqrPgt2ASplYMUcTdplf0S2y/TXwD12nuuIH2psSGH3pCwx29pQxVxUzvSD69s6igeBrs589+KHEhtkGQgVP7tMBu2tp2N8tgRRgD/WjSpVsC+yZl69VhlE5pcwfYLq/31B8DWrqO1toYCdriHiaPLl1KBqgXcYhm8rIziIWtDVAiW4sULe8VkCdjSPB4g6G1Kku+lqSJmt5YTl4DkDKBieFnqLSLI8DtN1fFkY7bhsAtdB0znql4go9fnZWB7Gv6q4KJwW6aBEquwG0K88DcvEpA9VD84+xB7U040fnllMVstyMcVLTd0lCpoW95KC8HtC7T54OoNlY+p3miGsDmF2WTEknB4qf8vyMc0HdettSgPTckuTtcApRPZrWUam/ah+MO2BRO82u70lspwsOQQUJpBm+ZHR3Jo9QraOZWXq95q6yxQo7Q8lydUtyKQ10tQM0gwsZKYWMmsbmYODzM2F5u1BC/CghflQ4ACqK4QaiIBGY6CpGGghAVpNgbYzQjsZofUUaCkFmk2AxmOgoQioNwTqCKEAAbQQH5q/B83ThebiIrN3kFnayEwsZPomMi0TmYpBmrxOmpRG8ubh6Dyc5eUjHoyEeioUORI3P2Vbh0lqpKkapBlZSL/z86CnPOrL7WWELongKgdf3iICaB4uNHMbmbpBGjgH758viWXmxi6KpMU4JSPTK7/ufXN2kIX50KPu2xkRHPe4wfs2HAFfnqsLzdhCpqCTFp9+WG7Gu6IIWMCA0ExvhhTZnruZrE46x7w8qO4Q6rZzIjgWsN2M0EQM/NQ83UcaCsJFztax7Ix8WGKAKMMt33zFdiN/9b67Xr6VFOiCCI6lDEoGIsBRfM6VSiZ9Xe1rsdQMukYEhJ+ny+q7fmPUhftQ0wnQSU5wLGooei8W4njxgGx8NywvH4iDOhpQ5EfM/IDtDqaok/LXFkCDOFY3NH0UG4lSyiiWlc30ZuBoUY7IyPHdr5u5jXy5xQRwRDEcLCXgAullHUvJit6CpnddvaKL/9Pnkw1GQMc5wRHLYPRINARLzn0kRO7ARQxG+y3ZVd3UdiGT10mf7ONQjoh2SUAEOOiKG2Rl3bJk3CAMulgmIMJKciejk/I3FAGd5gRHYMPDUldc5+v4rlkqtjeDR+LRasdw0VCHSWqkmdnI5TvKCY7wRoCTrrkLy8TGOzNQtNLS7zc7TRNZmA+1lREcDJaLgQhpZZlEeonXXp8CgjYncKTGDE1TLriyOVcXaSYBHCSGoncScakxpDGOHgSBi5jM2Keds7yvjhC6jYNG/8jwlkqmsRy8B4gW9ahM1gWvHPWTzSeAg8mQ9FZirrCo2s/DMrDB1jQMtDiIJTGmbryTMxxwMx3kBAeXQQiJgUgZ5YAESPZYhaG7YUAFk1hVWW3vMwMLqT8CDuWAMwIcpJIpROyT5bFHIi3q9NJ4m6Ou2UFoGBjC//ZjE10ZpJ0W4hPefNM8/085KA1JbyTlJuBJ9UYTSMUQEEDBsmn3R1JEzDZ4L/lbTgEHqSHopaTciKEbcqOIsB+W9w6zspGfctC6S+wv00QXBgKa68+SFO/PMef4qIPYY6aUccDxeqHZIFV/OEa+z84R0zaRzzio9YAN4N3HO18qoOq4h7FzwJQN0kYP5QA3CvxklUuM2lIAaHUUR0r8SPavcy7Qh27jYDcIQXE4BWriXFTQ9L6UnqTb7KbftjLAwW8wemJMxmzLQ1kAWrwrCgmxlOwwXRNpOga6JIIcDAMjaWQB5vkzhxOfDufwJLbO/lM85VCONIwKP9n4y2fAdrFMID4VJcT1Fp85OUh7GcGRieUScRkGbAXxW6o3GukQOl1gL45pGEiTMeDIxjAwlE5W4GXH4hN2h0Q69La4WdMW4EGd5gRHQsZEFIbr2YSnxcEsCY1PO0RAz1On+QeOnAxOz3nxELTEOicj51i104VN5yXiKuUcaRkFvr6h9i0Zq010YwjfEt9WyIZsovMdjsy8CtgZrRJcUwjPO1cpFyoHpYccyRkVARiqTfVkiN87vOP5PJkQDUEc+XnN1DIL6x/i22gHmjTmp88oe0o4UvRGtBqwFljFwu2SyIH1HciRpOFgJqtcQfoiCGxlBEsGREcoR57WTM79aDXrScWboCerXAsDY45UjY0EMPHYKzEQDFjAzomdPQSjxxzJWhDmfaQebAz1visBF3Hk6zUzyBaY49VA2GArGu7DALmzI2ODECk598JI+m/6F1DBYCz9MvoJGejLnTdyJG18zsMQfRvpFuyaTlYFp2ccaXsVjMv3MjhcIl6ScTsfR+KGhw2I8yGXQrJwr5JgiceZHLkbit5DOF1EiA0iA8S6GlOS3FVBZb2O7A1OTwGc5ae/PpC0QCqGdIOeBR35e5YUMorh2dJQloHiilGSTW5s2qGA/uuDxygGixOB7FIYnJ5ziGACzsfofD6Y1voYDkJ+taZDBvPhu6UwGFsYxMJHCh5yIIcQRkcocJzfLIFUWsSDJ7fyd0hhFHhjbO4LTvtebCTmKg41jAhX2DiOgWOjHRnISMCFHHoYAY6g0dU9lcFjI+1ouIjH2RyK6AE74OYWxGPD7WioiMsZHJroAVvI6NtQqcXldA5V9IA9+Xc0xF/s/nicxaGL+wDWLgqpNdaJgYcEnM+hjJHgBhevh4TpAQ29OrTxzrCIeECCCZMHC57czKGOd4U1DBMUZqVI8OJB/uTBictpULWGWtNQtQcC6Xzl4xDIXkFur4wc440zyoGaDoksgInYFxTWRRLFZd9fCHrJoRE+a8DUfGHhG/OMDAJhYMShkufMIucgMbaBZWAVS/pQBYDPOXSyBCSeiQtTd4mS9rM2whMLCRxK6QF7iIh+UgYMs2/R2ZFDKzcOiAMhw7Q0hCU26WSND7FwxgTU6ipRoLUXiczX8dcXgl5wqIXPyHhYKTTM4AJzU4denvfra98vHP4QG4GLmNcLjbDE4VQOxfwOOMS9pMCGaaAlTVT+y6GZp4bVGYsUnbLGCEZP0Iya6WUDuimqaLCX8e9QxHAzvRno2OBzBOTZVIskhxeDP32HDLLDRxXDh4SHOYxwbFoZw6XxYaIekwlGTMRQx3CaDxqAfFmsEpzvgWyB3TVcquWmC07PqWS4Yk4h4SJ4rVcpw3kQEkjFUr7WiDNEXi3DD0SIabwLQxS+sfYzaqlluMsVAoiYPxSEqAikmOEJMBKoDibGah5urJrh02HEPFkIQtArqhle0+KgwQs+UTnDm0DJ4CUtz1rUM5xNuw+UmBYGsizPjSgWfGYfmY/GTMyVVDTcB0zqLlMsPn4nKD2gouHCBqYTWfstdCUNV8SJb24Lk1aWqGm4oTY0nJiXWPln1DTcWEcGUMyE1p08UFHDhVyD7Hah/zJFDb8EEOI9ghC2qoab7sWASmAVO5klySa3ghBCrRAV050liYYQ9ArYD6T+GzLKPnUNF8KKaX4Ay4LsV13DjXVigMWs0nKsQWHDY6OlkOXwgB1aRXJIpyT4qWUOrUJeKlmMvZAq9MXEPCuzFGlkHqlCYW5ora9TKqCR+JeLUSpE5skWIhLcESrAkfV76ZnkCKFCZ+5oGaIjDJ1CaExuizCuD5kCHxl3NaxKptCaDfZnDYLRY1QKsTEjWQJPboN4Qx4vu8qBBAy5ySvTgfLl9hIDkfwunYw7pJQJ6WVdFjk3AC+eu8ssJ86QQkZ4couEXCIOp/jXcLBwFvKEWxrCemfei/q6vMmhtirpZB3ENW9FhIuqKXhYTm1RNrOcGjgup/GAvXKWjwxM/1nfx49zQTHeRD0W7QNoJ1r57XK2ZhR464rrvc5Fc9cm5CIesOFv5UjF4++47UmcirJ8YWzjiYPRI5VTywx2pd382z78rRr5WLJsG+M4eQHSwWye2xkT2YqJrnAid1wSuHQYGLJipFVz3y6WC84G75bC0vruTf/uAOwmL9NTOctFYqZ8pcm/NZndB357DiieXdXN//7btLUiOWvs2vvgLxfW/TGxzu1Z4H71HrBlocjPX/xAH7imPHHzCgcg3Uz1pulli0XmAPgOq0SKbqfdabyABQxVG8atfAzRolaPx5axahgYwRVEK8BsZzKnD0x82K1UxnO9PgEXYkuZhGu80P2RqClfa1oaysLUduNOasLZXMdb2WLe7TvcHblaujoigqwSSGNhMLUGZgu6zrO4NdJ16RPgobosPo4CPwOwJe0rLExZMDKrBX4lPO0RUugRXtPCtSKMzcncFjn7Il9ZfHgaJAkHc1nlmqUXHXFO90TWJriuqCCJjcPlA0JPVi9uSViYcEfkbbU8YNr+3QWOVW37JOVmbHmjwo/rI3WPI4M1aWSQXTj6yApRZ7x4nM3VkbybCqRiULbDjH3Ps+d9nSBbcvZxaaTvmk6KpM+KmwgHMyAISa8IU/WI/zqLC0MAU7/VVAR/N+GeURSqLYtcEmjXZ+VcFhKY4Zu+7oWDJ7iFrrkbiFKevY4FMq0sKeeiEMFq1WFQ2C1EQzAIBKUHLsNCmVpm+LgkZLC/UjDaxtzBVSD81lwsmMm5lxCRSNHkK6CgCujxaZUFLG8TocKc+2iw11ryuwhIwAVYQP+EUGEuvcHFArnExL3KujZFfoQK8/0MBuNdVriecgBqLifq/kFrESrMP495R7WXAfAL78aCehp/QoV5VAwrh8b7lZOzsJ6aUmF+J+IL+1HgTXi2ygL795QKbwzCC5QGO4xn2SwydzuYKJHF2XbiHdDzJuEPpeGogleUjFJhbr4/C+7sa28VnWIsuPulVLi/wmirFJ5PcMLAGIvO3coRKswDGvH1eqFB2ie8PAtvYq5EqTAPAvZBEfCRfv2gQtMnlAqXDKxiwtP+TB7OoZdnGRcBJ6dUmLcpPI13ZuC892Q8zsQQ3Id3oyjXiTYI8ztfyBg4tNVDzQP3yo1yuVJlGISR4WHxQibXCPRuq+WE/voAKFgLqcKvwFlEgWxygwY1w3s2pcJcHeYCYn5B6BomZpUrrGaWFb0SHxi7zkaGN1Y1Typ4cyExEU1kcikbDxOcpA9UCGsWWoKVjTTvNYKzKYSdwhNxKXWD84jN6K7DEZj9KRwTik1rozkAJ+/ZB6ucF4W4rOITCcy/KR2HgTjoIQnXEPhN9GMrHdeE+FJxOJnQxabUNh/mdhVR4ENcLq149I5wvdAFxOV1iseAQhN+twTdjN21GCDEGT2P8Ch0RS4MvOp5NpF5u6sWZiZwZbeUj4nwbeg6oxwQlwyyg1gQoyxvY4NbwIAPUwtalOWtrhLFRSTnfsISFibUD84Lb4rjMYUlBsIpID3Cu/iZkIsJSyIuo4DkF5mS2EqWnIKHKSAbhHdZf5fCciEFxPOhSujTI8NWAAFWQUXmsdDuQPlCJWQ4dAXK8IA9YY+4UglpsBVNYNbqGgYWlYhwpoTsGt2hMYaBIVH5EyWkd3TrKf4rUVm+EtLedB66QkmFpFeEnYheCelkoUDkvThBK5Pb0wkFTerglR/a+uSL0QxCVL31YdAGqT1bCQm+TiTypPTQOIPuAdoHp9Y8H7wI2rdsVQnZpsB0tkQA7YViIZYScgqR5zeGdoVovUrIRkReXAm0q/rfoYS0OZ4jMMHXi6D1xApFHyghgwhM6K0iaL1ngxCihIwtMINhW/vixCrI89HdGHtHwnJovTNK7XTYRhZ3zd0UkBQvNSJzeWyzQZRRQGKdlQm9/G1sM/h8TgH5fqEPzx/brGvnVEDaGMcRmWzafWCbKdPJKjd0zpB5g26bZMm5j875yYuim5E+FuIpHz+Mr773YziOrrmuv02Au0xwxDWb6Oib+XtM7/D2ueLJbVSPCUTmmfDusBoZ3hSPrRuReQu8u2IHIZLq3axP7No2wFvJgFNQ7dia0CS+rYK3+gwnKvwpHb9ohKYkvhXDHEjX3PbJ+CIsAuebVI53YnxOTkQmPKwoHEMZofkCxK2uvE7duIfY9A3x9MyXTx6octao40FctWg5ZWMwlM/jZBKu5ojspVWNDwvOdiCuDtq5i6KR6JZC9Ce7EeSKzp1k3EHNEL0UMJVQbrfzCUqG13ONEZyVwSy4bNfcTcV4vfD1moC5XbK/UrKuKqJzeZxVKlyfepFHeKrhLKxHLfWakgrr85PpI3jbjWpRCuuTcVJAcPy3p1rdZoWnONTS7CxbrX4FgM0tl8ZaWo+nSx5ylUeeXUsWuSA8PodWJ0YHkHuhLe5VCWViTQiqR/czaHeQ79xZmcamAX4OiCdEcBLrasQSET86mRlkGwD8q6rV3JhCL58YcHU9nHNmkTPqQ6xzMl8IfABy5ddLHFt1eGlt9SgGAh57Ja5nQgyVoVMcbvpOg4H/B32mKg9VnUtDGBjC7dVi0hLzHX/BgOAeuE94p6bK7LQJBceCXZUxx1mvqvBA6EWi2x2ORx1PUQL+GCgGxlH+YTX5Kg6qWKZEYdpg/UfN9WMZIPyimw5rG0mRtZeuGBsRWqMEHiHpDSEp93oKGaEUE6zlNUh4iAyOAvW46kCozaI+DBT25bYKDjpQDAMjqrAZlrcZLAYuYpIo4bPPqZVg5E5FA4bepXFsMKHx2RroP9ayD3kchuseHDhGR6ieSc/xKwE6u3B2owfD04LSA8UITycLBH0YPCzHnezSAWRIeoXqM9aXrbtMMYh8hXSOujUMDKXgYRSve8C+DSQ3I6Nj21528nAYsTnrk6X0UODE5xyg6DKG2upnqIsusZKd20BojlVJUmfilUXOYaKLEGir72et/mJpc5trv7GPGCs6Zf38o2lM2B2SUgaX73T7w7AGKotnq79a6bxTtDibB22Hung+UrU/k/dlg8xtuv0JrsSU7NlxyxBRFzVLdfsYYW96M3qDrWjoTgq1JLvbgyFKjmzzXwfBB6SLu3lI+uc3CMor2p3Kq6dKkeD5vMXmZIDiLdv4215n7SKFG18i9oZ+yS9uyfLx6ycjqzjODX3leHqRfeFJztj6n7Y6rAbovFOMYH1ThB6RK/zkMpHnNoixosMeE+6bkvjgLFBm/vxt8JXleayw20UdzOatr4JB6fCWqHAfmkA35Mx5I4Ey/0QrW86oT64+fEAFM1gNulpgBVLKGDpmc/X/PcFQ0g3elK1gSHoLSjQCh2FLkIRrIIlO4DlsDYPSQzhCemT1wObF40wwohWIfV5mFcbwARGtQHW2jDERDUP0ArewDlvwRxC9wNYs9QDgAohm4JBWIrMcEz9URs6Pb0VU+BM9uoHxrMWOBA+ZkfUTt3EVoaMcSOcpqM4iF/wFjnZga2w5YyCSuNEPrNWCx30RhBBRox+ozhY0LqcTNARGVkfc7/Ll8QgZDUFTPRhsSSYUMTqCm7A1LSFedAR7Z4uSQkYIFx3BcNZ95Pi+Q7BoCTbKluV1/kJFSzAEW9h8IoXW0ODpA3qZOCE5sn/Cv3YuTPQEG0z5SsPWdi+CRFPwIrY4r/MRIpqCimx5bRGiK3gsW98S1o+uoHcWgNQyy/LRFRSuxiK4M4tHW1CWxTA4PWfpaAvuyIKQgodZOdqCo4nzgPFFRSDrRl9QgIWhm1pWjb5gEBZILx5k0egLnp/xh3ZZJK9iyZAbrM+GlljexYLRGPTOgvGr1ovGYHgWTttq0RmUZvEMDyvWis7gOCwg2UTnnFaK0gDgrPSE9IMWis7gy2k+aER91LQtE63BK8Q9vjaLRGtwHBbXEpaI1iAPC8xRX2iBaA0qstD+l7/bozUIXMRys9gm5grujt5gFBbdntwbvUFxFt/9ujN6g3swAsPBjPuiNxiEIXDsEu6K3qCxTgwGYVa5tiH3RG9QlGGYUQ4Eo0fcEb3B8CUZhyOXc330BoVTvNQwEnMFIcTV0RtsxvOhirH4Xz6ujd5g8PMzGo/n48roDQKr2A8zHr14kI/rojcIpGKlmSE1V0Vv8DRMYS7o45roDQa/PKPygwdyRfQGmzk/4zJXuZyP3qBw0gcqRmb5g+Vs9AZ1lyhezzWMzQvVyrnoDSr+MqMzq1wKSW/lTPQG+878/T4Znz2HgTHvR2/wEsbod3g3eoO3MUrX673oDfpmnMblNN6J1sB3GEbqmP45jNZg8FEYqyd/YQ6iNajg+UjFaH1dSHoju9EaVDoZ4/XY4WEtO9EaLIcxGx2hliBag5EYtYm4nL/TZQQ9e3M6g4uOwritGjx74dmb0xkUfQQjN+m5RZvTGSyRwRttaavxtQW+QVYKGL5eV3e1U3SjKXhw3EsKloFBeyfTEjTVg7GYJcDIwT0eUDvgOzpLwwyvdDppHUozUHEololnbe03azqBlbFkTPfkysu1ARVqsHyMsbJT63/Y0AN0x1Iy09s7P6oBqLgvlpU3bqvgTPEJqGDHYZkZfmKp8VWeJx+f5WaaB+c6bRtO2Xnw/Vh+Jtw7qW3VlZLj2/5MHsvRz1xKvWmmNyM3y9JMH/7fkEOyKDalXsEyNdWdY511iKLQPD/UZhHL1qQnV3RQ8aPITNDJAgHL2Pi7xrVb150C49td2s/asKSNs2nASKpLy0NZj2CJu8ebqiyDJH2oYsmbYPeEDsp+VJVLJ32gYgLoeWpF5x2jKSh9/Ikr73Uju0v9oUfma+13G2rJ0b6W/rO+mRBm+/43t31TdeR7wu6QMDn0PL0qaK8k46sgvs5YTBIzf/i6Z223ngfVo54q5ReGY7qY/NK2UMNzXUrdCKhgb4tzUcHU8Uf+Vc1opD1tPCaRE7+vw6o/1aLCi3IznUz3+FLkufXaKbpTJ452jx9mapn67onPtF/yoUIEUrGrr4JpZsY3//n1jR5QaXh+d6dj0pnyxoHoS9tc8zVKgu+Tg6wSfIQpaMqbh2Ku7hasT4p7KwW+NzzmY5mS/k6ifdM8plR4eWu/WVEBBs/zC2MxSU1z/1S87aPCjS/RcfNgo9Md3w+3N5231h0wbU37+MK4EWdU67JbvLYLLqhNHzdsdxov/G5Jf0xmM7y41fX5DfG2jXjmX3TSOkyb/zkiMKUu/bBN5WaaO/Ebl97NoyLNrhNuQqlQQ7Nt9AkdNQ3Ubn1Pbfxjj5IEVrEhe/T7/gmHKslq4Rc+eyhQpnr8VeMdfgH2t0/eUvsutD6njXGca3Q0l5e/SugtosGiHJGdLskd1W+xxvbb/OfbmoIBAA==;" parent="mnFBNAugpN4PRXguCW-v-79" vertex="1">
          <mxGeometry x="500.35" y="37.99" width="49.85" height="39.41" as="geometry" />
        </mxCell>
        <mxCell id="4wUCGFTW4hyRswPNxl1S-1" value="" style="rounded=1;whiteSpace=wrap;html=1;fillColor=#cdffcc;strokeColor=none;container=0;fillStyle=auto;fontColor=#FF33FF;" parent="mnFBNAugpN4PRXguCW-v-79" vertex="1">
          <mxGeometry x="294.68" y="265.68" width="190" height="90" as="geometry" />
        </mxCell>
        <mxCell id="-9MAf7PEn5qSyh-q4To3-2" value="&lt;b style=&quot;&quot;&gt;&lt;font style=&quot;font-size: 8px;&quot;&gt;Management Cluster&lt;/font&gt;&lt;br style=&quot;font-size: 7px;&quot;&gt;&lt;/b&gt;" style="text;strokeColor=none;align=center;fillColor=none;html=1;verticalAlign=middle;whiteSpace=wrap;rounded=0;container=0;fontSize=7;fontColor=#4F698C;" vertex="1" parent="mnFBNAugpN4PRXguCW-v-79">
          <mxGeometry x="-29.050000000000004" y="151.01999999999998" width="87.6" height="20.77" as="geometry" />
        </mxCell>
        <mxCell id="mnFBNAugpN4PRXguCW-v-12" value="" style="rounded=1;whiteSpace=wrap;html=1;fillColor=#CCCCCC;strokeColor=none;container=0;fillStyle=auto;fontColor=#FF33FF;dashed=1;opacity=70;" parent="mnFBNAugpN4PRXguCW-v-79" vertex="1">
          <mxGeometry x="168.42" y="90" width="436.51" height="270" as="geometry" />
        </mxCell>
        <mxCell id="mnFBNAugpN4PRXguCW-v-77" value="" style="image;sketch=0;aspect=fixed;html=1;points=[];align=center;fontSize=12;image=img/lib/mscae/Kubernetes.svg;container=0;" parent="mnFBNAugpN4PRXguCW-v-79" vertex="1">
          <mxGeometry x="170.00123294968654" y="91.72582437970573" width="28.177730443231532" height="27.046989649229566" as="geometry" />
        </mxCell>
        <mxCell id="-9MAf7PEn5qSyh-q4To3-1" value="&lt;span style=&quot;font-size: 8px;&quot;&gt;&lt;font style=&quot;font-size: 8px;&quot;&gt;Claudie Managed Cluster&lt;/font&gt;&lt;br style=&quot;font-size: 8px;&quot;&gt;&lt;/span&gt;" style="text;strokeColor=none;align=center;fillColor=none;html=1;verticalAlign=middle;whiteSpace=wrap;rounded=0;container=0;fontSize=8;fontColor=#4F698C;fontStyle=1" vertex="1" parent="mnFBNAugpN4PRXguCW-v-79">
          <mxGeometry x="140.29" y="118.77" width="87.6" height="21.23" as="geometry" />
        </mxCell>
        <mxCell id="4wUCGFTW4hyRswPNxl1S-4" value="" style="sketch=0;pointerEvents=1;shadow=0;dashed=0;html=1;strokeColor=none;fillColor=#5E5E5E;labelPosition=center;verticalLabelPosition=bottom;verticalAlign=top;outlineConnect=0;align=center;shape=mxgraph.office.servers.server_generic;container=0;" parent="mnFBNAugpN4PRXguCW-v-79" vertex="1">
          <mxGeometry x="332.9879337796646" y="290.96054319696975" width="22.477115773201295" height="31.666826812021686" as="geometry" />
        </mxCell>
        <mxCell id="4wUCGFTW4hyRswPNxl1S-6" value="" style="sketch=0;pointerEvents=1;shadow=0;dashed=0;html=1;strokeColor=none;fillColor=#5E5E5E;labelPosition=center;verticalLabelPosition=bottom;verticalAlign=top;outlineConnect=0;align=center;shape=mxgraph.office.servers.server_generic;container=0;" parent="mnFBNAugpN4PRXguCW-v-79" vertex="1">
          <mxGeometry x="379.91793377966445" y="290.96054319696975" width="22.477115773201295" height="31.666826812021686" as="geometry" />
        </mxCell>
        <mxCell id="4wUCGFTW4hyRswPNxl1S-8" value="" style="sketch=0;pointerEvents=1;shadow=0;dashed=0;html=1;strokeColor=none;fillColor=#5E5E5E;labelPosition=center;verticalLabelPosition=bottom;verticalAlign=top;outlineConnect=0;align=center;shape=mxgraph.office.servers.server_generic;container=0;" parent="mnFBNAugpN4PRXguCW-v-79" vertex="1">
          <mxGeometry x="426.18793377966466" y="290.96054319696975" width="22.477115773201295" height="31.666826812021686" as="geometry" />
        </mxCell>
        <mxCell id="4wUCGFTW4hyRswPNxl1S-12" value="&lt;b style=&quot;font-size: 10px;&quot;&gt;&lt;font&gt;Compute&lt;br&gt;(Static)&lt;/font&gt;&lt;br&gt;&lt;/b&gt;" style="text;strokeColor=none;align=center;fillColor=none;html=1;verticalAlign=middle;whiteSpace=wrap;rounded=0;container=0;fontColor=#4F698C;" parent="mnFBNAugpN4PRXguCW-v-79" vertex="1">
          <mxGeometry x="380.91075970357724" y="335.6820271966605" width="24.7706990153647" height="12.282890399814473" as="geometry" />
        </mxCell>
        <mxCell id="4wUCGFTW4hyRswPNxl1S-11" value="&lt;span&gt;&lt;font style=&quot;font-size: 10px;&quot;&gt;On-Prem&lt;/font&gt;&lt;br&gt;&lt;/span&gt;" style="text;strokeColor=none;align=center;fillColor=none;html=1;verticalAlign=middle;whiteSpace=wrap;rounded=0;container=0;fontColor=#4F698C;labelBackgroundColor=none;labelBorderColor=none;fontStyle=1" parent="mnFBNAugpN4PRXguCW-v-79" vertex="1">
          <mxGeometry x="273.8037170670115" y="265.6808784636209" width="95.06249999999994" height="12.28442576111445" as="geometry" />
        </mxCell>
        <mxCell id="mnFBNAugpN4PRXguCW-v-65" value="&lt;b style=&quot;font-size: 10px;&quot;&gt;&lt;font&gt;Compute&lt;br&gt;(Autoscaled)&lt;/font&gt;&lt;br&gt;&lt;/b&gt;" style="text;strokeColor=none;align=center;fillColor=none;html=1;verticalAlign=middle;whiteSpace=wrap;rounded=0;container=0;fontColor=#4F698C;" parent="mnFBNAugpN4PRXguCW-v-79" vertex="1">
          <mxGeometry x="242.73963807256433" y="225.83202719666048" width="35.08769515526409" height="12.282890399814473" as="geometry" />
        </mxCell>
        <mxCell id="mnFBNAugpN4PRXguCW-v-67" value="" style="sketch=0;pointerEvents=1;shadow=0;dashed=0;html=1;strokeColor=none;fillColor=#5E5E5E;labelPosition=center;verticalLabelPosition=bottom;verticalAlign=top;outlineConnect=0;align=center;shape=mxgraph.office.servers.server_generic;container=0;" parent="mnFBNAugpN4PRXguCW-v-79" vertex="1">
          <mxGeometry x="272.2065377443526" y="187.9990591972789" width="22.477115773201295" height="31.666826812021686" as="geometry" />
        </mxCell>
        <mxCell id="mnFBNAugpN4PRXguCW-v-70" value="" style="sketch=0;pointerEvents=1;shadow=0;dashed=0;html=1;strokeColor=none;fillColor=#5E5E5E;labelPosition=center;verticalLabelPosition=bottom;verticalAlign=top;outlineConnect=0;align=center;shape=mxgraph.office.servers.server_generic;container=0;" parent="mnFBNAugpN4PRXguCW-v-79" vertex="1">
          <mxGeometry x="222.6651397136232" y="187.9990591972789" width="22.477115773201295" height="31.666826812021686" as="geometry" />
        </mxCell>
        <mxCell id="atH9GIuNGDAV8smoVHld-44" value="&lt;b style=&quot;font-size: 13px;&quot;&gt;&lt;font color=&quot;#4f698c&quot;&gt;...&lt;/font&gt;&lt;br style=&quot;font-size: 13px;&quot;&gt;&lt;/b&gt;" style="text;strokeColor=none;align=center;fillColor=none;html=1;verticalAlign=middle;whiteSpace=wrap;rounded=0;container=0;fontSize=13;" parent="mnFBNAugpN4PRXguCW-v-79" vertex="1">
          <mxGeometry x="241.2796380725643" y="206.38202719666046" width="35.08769515526409" height="12.282890399814473" as="geometry" />
        </mxCell>
        <mxCell id="-9MAf7PEn5qSyh-q4To3-29" value="" style="outlineConnect=0;dashed=0;verticalLabelPosition=bottom;verticalAlign=top;align=center;html=1;shape=mxgraph.aws3.ec2;fillColor=#F58534;gradientColor=none;" vertex="1" parent="mnFBNAugpN4PRXguCW-v-79">
          <mxGeometry x="251.41" y="152.1" width="17.04" height="14.24" as="geometry" />
        </mxCell>
        <mxCell id="-9MAf7PEn5qSyh-q4To3-30" value="EC2" style="text;html=1;strokeColor=none;fillColor=none;align=center;verticalAlign=middle;whiteSpace=wrap;rounded=0;fontSize=7;fontColor=#4F698C;" vertex="1" parent="mnFBNAugpN4PRXguCW-v-79">
          <mxGeometry x="240.17999999999998" y="162.05000000000004" width="40.2" height="20.1" as="geometry" />
        </mxCell>
        <mxCell id="mnFBNAugpN4PRXguCW-v-22" value="&lt;b&gt;&lt;font style=&quot;font-size: 10px;&quot; face=&quot;Verdana&quot;&gt;Control&lt;/font&gt;&lt;br&gt;&lt;/b&gt;" style="text;strokeColor=none;align=center;fillColor=none;html=1;verticalAlign=middle;whiteSpace=wrap;rounded=0;container=0;fontColor=#4F698C;" parent="mnFBNAugpN4PRXguCW-v-79" vertex="1">
          <mxGeometry x="377.05680918992937" y="134.79749759802104" width="28.89914885125881" height="12.282890399814473" as="geometry" />
        </mxCell>
        <mxCell id="mnFBNAugpN4PRXguCW-v-15" value="" style="sketch=0;pointerEvents=1;shadow=0;dashed=0;html=1;strokeColor=none;labelPosition=center;verticalLabelPosition=bottom;verticalAlign=top;outlineConnect=0;align=center;shape=mxgraph.office.servers.server_generic;fillColor=#5E5E5E;container=0;" parent="mnFBNAugpN4PRXguCW-v-79" vertex="1">
          <mxGeometry x="359.2387849284058" y="98.89882639857764" width="21.674361638444115" height="33.777948599489804" as="geometry" />
        </mxCell>
        <mxCell id="mnFBNAugpN4PRXguCW-v-19" value="" style="sketch=0;pointerEvents=1;shadow=0;dashed=0;html=1;strokeColor=none;labelPosition=center;verticalLabelPosition=bottom;verticalAlign=top;outlineConnect=0;align=center;shape=mxgraph.office.servers.server_generic;fillColor=#5E5E5E;container=0;" parent="mnFBNAugpN4PRXguCW-v-79" vertex="1">
          <mxGeometry x="402.39483345145305" y="98.23882639857764" width="21.674361638444115" height="33.777948599489804" as="geometry" />
        </mxCell>
        <mxCell id="-9MAf7PEn5qSyh-q4To3-26" value="" style="verticalLabelPosition=bottom;html=1;verticalAlign=top;align=center;strokeColor=none;fillColor=#2265A8;shape=mxgraph.azure.virtual_machine_feature;pointerEvents=1;" vertex="1" parent="mnFBNAugpN4PRXguCW-v-79">
          <mxGeometry x="379.25" y="152.09999999999997" width="24.96" height="22.55" as="geometry" />
        </mxCell>
        <mxCell id="-9MAf7PEn5qSyh-q4To3-27" value="AzureVM" style="text;html=1;strokeColor=none;fillColor=none;align=center;verticalAlign=middle;whiteSpace=wrap;rounded=0;fontSize=7;fontColor=#4F698C;" vertex="1" parent="mnFBNAugpN4PRXguCW-v-79">
          <mxGeometry x="372.3100000000001" y="170.73999999999998" width="40.2" height="20.1" as="geometry" />
        </mxCell>
        <mxCell id="-9MAf7PEn5qSyh-q4To3-38" value="" style="sketch=0;pointerEvents=1;shadow=0;dashed=0;html=1;strokeColor=none;fillColor=#5E5E5E;labelPosition=center;verticalLabelPosition=bottom;verticalAlign=top;outlineConnect=0;align=center;shape=mxgraph.office.servers.server_generic;container=0;" vertex="1" parent="mnFBNAugpN4PRXguCW-v-79">
          <mxGeometry x="381.17513971362337" y="187.6190591972789" width="22.477115773201295" height="31.666826812021686" as="geometry" />
        </mxCell>
        <mxCell id="-9MAf7PEn5qSyh-q4To3-39" value="&lt;b style=&quot;font-size: 10px;&quot;&gt;&lt;font&gt;Compute&lt;br&gt;(Static)&lt;/font&gt;&lt;br&gt;&lt;/b&gt;" style="text;strokeColor=none;align=center;fillColor=none;html=1;verticalAlign=middle;whiteSpace=wrap;rounded=0;container=0;fontColor=#4F698C;" vertex="1" parent="mnFBNAugpN4PRXguCW-v-79">
          <mxGeometry x="374.86963807256427" y="226.83202719666042" width="35.08769515526409" height="12.282890399814473" as="geometry" />
        </mxCell>
        <mxCell id="CH-1Xo2lGHldpXrhLHMe-2" value="&lt;b style=&quot;font-size: 10px;&quot;&gt;&lt;font&gt;Compute&lt;br&gt;(Static)&lt;/font&gt;&lt;br&gt;&lt;/b&gt;" style="text;strokeColor=none;align=center;fillColor=none;html=1;verticalAlign=middle;whiteSpace=wrap;rounded=0;container=0;fontColor=#4F698C;" parent="mnFBNAugpN4PRXguCW-v-79" vertex="1">
          <mxGeometry x="507.5896380725642" y="225.83202719666045" width="35.08769515526409" height="12.282890399814473" as="geometry" />
        </mxCell>
        <mxCell id="CH-1Xo2lGHldpXrhLHMe-3" value="" style="sketch=0;pointerEvents=1;shadow=0;dashed=0;html=1;strokeColor=none;fillColor=#5E5E5E;labelPosition=center;verticalLabelPosition=bottom;verticalAlign=top;outlineConnect=0;align=center;shape=mxgraph.office.servers.server_generic;container=0;" parent="mnFBNAugpN4PRXguCW-v-79" vertex="1">
          <mxGeometry x="535.9665377443529" y="187.4190591972789" width="22.477115773201295" height="31.666826812021686" as="geometry" />
        </mxCell>
        <mxCell id="CH-1Xo2lGHldpXrhLHMe-5" value="" style="sketch=0;pointerEvents=1;shadow=0;dashed=0;html=1;strokeColor=none;fillColor=#5E5E5E;labelPosition=center;verticalLabelPosition=bottom;verticalAlign=top;outlineConnect=0;align=center;shape=mxgraph.office.servers.server_generic;container=0;" parent="mnFBNAugpN4PRXguCW-v-79" vertex="1">
          <mxGeometry x="491.81513971362307" y="187.99905919727888" width="22.477115773201295" height="31.666826812021686" as="geometry" />
        </mxCell>
        <mxCell id="atH9GIuNGDAV8smoVHld-41" value="" style="sketch=0;pointerEvents=1;shadow=0;dashed=0;html=1;strokeColor=none;labelPosition=center;verticalLabelPosition=bottom;verticalAlign=top;outlineConnect=0;align=center;shape=mxgraph.office.servers.server_generic;fillColor=#5E5E5E;container=0;" parent="mnFBNAugpN4PRXguCW-v-79" vertex="1">
          <mxGeometry x="514.2948334514533" y="98.23882639857757" width="21.674361638444115" height="33.777948599489804" as="geometry" />
        </mxCell>
        <mxCell id="atH9GIuNGDAV8smoVHld-46" value="&lt;b&gt;&lt;font style=&quot;font-size: 10px;&quot; face=&quot;Verdana&quot;&gt;Control&lt;/font&gt;&lt;br&gt;&lt;/b&gt;" style="text;strokeColor=none;align=center;fillColor=none;html=1;verticalAlign=middle;whiteSpace=wrap;rounded=0;container=0;fontColor=#4F698C;" parent="mnFBNAugpN4PRXguCW-v-79" vertex="1">
          <mxGeometry x="510.8268091899293" y="133.86749759802098" width="28.89914885125881" height="12.282890399814473" as="geometry" />
        </mxCell>
        <mxCell id="-9MAf7PEn5qSyh-q4To3-23" value="" style="editableCssRules=.*;html=1;fontColor=#999999;shape=image;verticalLabelPosition=middle;labelBackgroundColor=#ffffff;verticalAlign=middle;labelPosition=right;align=left;spacingLeft=20;part=1;points=[];imageAspect=0;image=data:image/svg+xml,PHN2ZyB4bWxucz0iaHR0cDovL3d3dy53My5vcmcvMjAwMC9zdmciIHhtbG5zOnY9Imh0dHBzOi8vdmVjdGEuaW8vbmFubyIgd2lkdGg9IjIwIiBoZWlnaHQ9IjIwIiB2aWV3Qm94PSIwIDAgMjAgMjAiPiYjeGE7CTxzdHlsZSB0eXBlPSJ0ZXh0L2NzcyI+JiN4YTsJLnN0MHtmaWxsOiM0Mjg1ZjQ7fSYjeGE7CS5zdDF7ZmlsbDojNjY5ZGY2O30mI3hhOwkuc3Qye2ZpbGw6I2FlY2JmYTt9JiN4YTsJPC9zdHlsZT4mI3hhOwk8cGF0aCBjbGFzcz0ic3QyIiBkPSJNNyA3aDZ2Nkg3eiIvPiYjeGE7CTxwYXRoIGNsYXNzPSJzdDEiIGQ9Ik05IDBoMnY0SDl6TTUgMGgydjRINXptOCAwaDJ2NGgtMnoiLz4mI3hhOwk8cGF0aCBjbGFzcz0ic3QwIiBkPSJNOSAxNmgydjRIOXptLTQgMGgydjRINXptOCAwaDJ2NGgtMnptMy01VjloNHYyem0wIDR2LTJoNHYyem0wLThWNWg0djJ6Ii8+JiN4YTsJPHBhdGggY2xhc3M9InN0MSIgZD0iTTAgMTFWOWg0djJ6bTAgNHYtMmg0djJ6bTAtOFY1aDR2MnoiLz4mI3hhOwk8cGF0aCBjbGFzcz0ic3QyIiBkPSJNMyAzdjE0aDE0VjN6bTEyIDEySDVWNWgxMHoiLz4mI3hhOwk8cGF0aCBjbGFzcz0ic3QxIiBkPSJNMTAgMTBsLTMgM2g2eiIvPiYjeGE7CTxwYXRoIGNsYXNzPSJzdDAiIGQ9Ik0xMyA3bC0zIDMgMyAzeiIvPiYjeGE7PC9zdmc+;" vertex="1" parent="mnFBNAugpN4PRXguCW-v-79">
          <mxGeometry x="515.2800000000002" y="152.09999999999997" width="20" height="20" as="geometry" />
        </mxCell>
        <mxCell id="-9MAf7PEn5qSyh-q4To3-24" value="GCE" style="text;html=1;strokeColor=none;fillColor=none;align=center;verticalAlign=middle;whiteSpace=wrap;rounded=0;fontSize=7;fontColor=#4F698C;" vertex="1" parent="mnFBNAugpN4PRXguCW-v-79">
          <mxGeometry x="505.18" y="170" width="40.2" height="20.1" as="geometry" />
        </mxCell>
      </root>
    </mxGraphModel>
  </diagram>
</mxfile>
